<svg viewBox="0 0 84 31"><g fill-rule="evenodd"><path d="M264.168 416.944c-1.04 0-1.887.846-1.887 1.887s.846 1.888 1.887 1.888c1.042 0 1.888-.847 1.888-1.888 0-1.04-.846-1.887-1.888-1.887zm-.471-.944c1.824 0 3.303 1.478 3.303 3.303s-1.48 3.304-3.303 3.304c-1.825 0-3.304-1.48-3.304-3.304 0-1.825 1.48-3.303 3.304-3.303zm-6.135 30.202V416h-2.984l-5.51 4.839v3.45l5.51-4.923v26.836h2.984zm-14.74-2.226c2.21-2.142 2.47-4.957 2.47-7.939 0-2.814-.303-5.839-2.557-8.023-1.213-1.176-3.034-1.89-5.33-1.89-2.427 0-4.335.756-5.548 2.058v-9.493h12.786V416H229.04v15.71h2.817c.607-1.764 2.427-2.94 5.114-2.94 4.464 0 5.2 3.612 5.2 7.267 0 2.142-.086 4.537-1.69 6.09-.91.883-2.296 1.387-3.813 1.387-3.25 0-4.854-1.68-5.244-4.662h-3.12c.172 2.142.823 3.864 2.166 5.208 1.344 1.302 3.51 2.142 6.198 2.142 2.73 0 4.724-.84 6.154-2.226zm-23.957 2.226h4.72v-4.719h-4.72v4.72zm-5.663-4.471l-12.822-.001v-5.32L210.99 416h-20.44c3.56 1.14 6.128 4.06 6.128 8.233 0 3.283-1.94 5.312-3.525 6.392 1.718 1.123 3.965 3.153 3.965 6.91 0 4.566-2.64 7.528-6.369 8.667h22.453v-4.471zm-25.955-.248c2.383 0 4.247-1.854 4.247-4.226 0-2.37-1.864-4.268-4.247-4.268S183 434.886 183 437.257c0 2.372 1.864 4.226 4.247 4.226zm.494-13.213c2.175 0 3.753-1.594 3.753-3.775 0-2.14-1.578-3.776-3.753-3.776-2.176 0-3.797 1.637-3.797 3.776 0 2.18 1.62 3.775 3.797 3.775zM217.054 416h3.699v20.764h-2.257v-5.844h-5.43v5.844h-6.47L217.054 416z" transform="translate(-183 -416)"></path></g></svg>