<svg xmlns="http://www.w3.org/2000/svg" fill="none" height="101" viewBox="0 0 641 101" width="641"><path d="M56.968 20.0508C52.8881 20.0508 49.208 17.5708 47.688 13.7708L42.168 0.0507812H90.248C106.808 0.0507812 120.248 13.4908 120.248 30.0508C120.248 46.6108 106.808 60.0508 90.248 60.0508L106.288 100.051H82.208L68.688 66.3308C67.1681 62.5308 63.488 60.0508 59.408 60.0508H30.208C24.688 60.0508 20.208 64.5308 20.208 70.0508C20.208 75.5708 24.688 80.0508 30.208 80.0508H49.208C51.248 80.0508 53.088 81.2908 53.848 83.1708L60.648 100.051H30.248C13.688 100.051 0.248047 86.6108 0.248047 70.0508C0.248047 53.4908 13.688 40.0508 30.248 40.0508H90.248C95.7681 40.0508 100.248 35.5708 100.248 30.0508C100.248 24.5308 95.7681 20.0508 90.248 20.0508H56.968ZM166.728 40.0508L182.768 80.0508H174.648C172.528 80.0508 170.648 78.7308 169.928 76.7308L168.808 73.5708H153.888L152.768 76.7308C152.048 78.7308 150.168 80.0508 148.048 80.0508H140.248L155.968 40.0508H166.728ZM156.928 64.9308H165.728L161.328 52.5308L156.928 64.9308ZM243.368 75.0508C243.368 77.8108 245.608 80.0508 248.368 80.0508H254.528V40.0508H243.368V75.0508ZM282.408 69.9708L282.688 40.0508H271.528V75.0508C271.528 77.8108 273.768 80.0508 276.528 80.0508H298.768V69.9708H282.408ZM323.888 69.9708V64.6108H336.328V55.4908H323.888V49.6108H340.128V40.0508H312.888V75.0508C312.888 77.8108 315.128 80.0508 317.888 80.0508H340.128V69.9708H323.888ZM392.208 54.0508C392.208 51.4908 390.368 49.5708 387.208 49.5708H380.808V58.5308H387.208C390.408 58.5308 392.208 56.6108 392.208 54.0508ZM405.128 80.0508H395.848C394.008 80.0508 392.288 79.0108 391.448 77.4108L386.368 67.8108H380.848V75.0508C380.848 77.8108 378.608 80.0508 375.848 80.0508H369.808V40.0508H388.648C397.288 40.0508 403.528 45.8508 403.528 54.2108C403.528 59.1308 401.128 63.1308 397.168 65.4908L405.128 80.0508ZM445.208 60.0508C445.208 53.7708 440.848 49.2508 434.848 49.2508C428.848 49.2508 424.408 53.8108 424.408 60.0508C424.408 66.2908 428.808 70.8508 434.848 70.8508C440.888 70.8508 445.208 66.3308 445.208 60.0508ZM456.448 60.0508C456.448 72.2908 447.448 81.0508 434.808 81.0508C422.168 81.0508 413.128 72.2508 413.128 60.0508C413.128 47.8508 422.168 39.0508 434.808 39.0508C447.448 39.0508 456.448 47.8108 456.448 60.0508ZM544.808 60.0508C544.808 53.7708 540.448 49.2508 534.448 49.2508C528.448 49.2508 524.008 53.8108 524.008 60.0508C524.008 66.2908 528.408 70.8508 534.448 70.8508C540.448 70.8508 544.808 66.3308 544.808 60.0508ZM556.048 60.0508C556.048 72.2908 547.048 81.0508 534.408 81.0508C521.768 81.0508 512.728 72.2508 512.728 60.0508C512.728 47.8508 521.768 39.0508 534.408 39.0508C547.048 39.0508 556.048 47.8108 556.048 60.0508ZM491.168 67.3708C491.168 65.2508 489.608 63.7308 487.208 63.7308H479.048V71.0108H487.208C489.608 71.0108 491.168 69.4908 491.168 67.3708ZM479.048 55.6108H486.808C489.128 55.6108 490.528 54.2108 490.528 52.1308C490.528 50.0508 489.088 48.6508 486.808 48.6508H479.048V55.6108ZM502.048 68.6508C502.048 75.1308 496.448 80.0508 489.088 80.0508H473.448C470.688 80.0508 468.448 77.8108 468.448 75.0508V40.0508H488.688C495.768 40.0508 500.968 44.3708 500.968 50.2908C500.968 53.8508 498.968 57.0908 495.928 58.9308C499.688 60.6908 502.048 64.2908 502.048 68.6508ZM597.568 40.0508H565.208V44.9708C565.208 47.7308 567.448 49.9708 570.208 49.9708H575.888V75.0508C575.888 77.8108 578.128 80.0508 580.888 80.0508H586.968V49.9708H597.568V40.0508ZM227.088 46.6508C223.088 42.0108 217.048 39.0108 210.288 39.0108C198.248 39.0108 188.488 48.4108 188.488 60.0108C188.488 71.6108 198.248 81.0108 210.288 81.0108C216.968 81.0108 222.648 78.6908 227.368 73.9708C227.928 73.4108 228.248 72.6108 228.248 71.8108V57.7308H211.208V64.5308H218.248V68.0908C216.288 69.7708 213.688 70.7708 210.848 70.7708C204.648 70.7708 199.648 65.9308 199.648 59.9708C199.648 54.0108 204.648 49.1708 210.848 49.1708C213.048 49.1708 215.088 49.7708 216.848 50.8508C218.688 51.9708 221.008 51.7708 222.648 50.3708L227.088 46.6508ZM624.888 70.6908C622.568 70.6908 620.728 69.9308 619.408 69.1708C617.848 68.2108 615.888 68.2108 614.328 69.1308L608.088 72.7708C611.128 78.3708 617.168 81.0908 624.248 81.0908C633.528 81.0908 640.248 76.5708 640.248 67.8108C640.248 58.6908 632.528 56.6908 626.648 55.1708C622.888 54.2108 619.848 53.4908 619.848 51.2108C619.848 49.3308 621.728 48.4908 623.688 48.4908C625.488 48.4908 627.008 49.1308 628.328 50.0908C629.928 51.2508 632.048 51.3708 633.768 50.3708L639.368 47.1308C637.568 44.6508 635.248 42.4908 632.448 41.0508C630.288 39.9308 627.208 39.1708 623.808 39.1708C614.368 39.1708 608.608 43.6908 608.608 51.5708C608.608 60.6908 615.968 62.4508 621.768 63.8908C625.568 64.8108 628.688 65.5308 628.688 68.0508C628.728 69.8108 626.848 70.6908 624.888 70.6908Z" fill="#FFF"></path> </svg>