<svg xmlns="http://www.w3.org/2000/svg" width="156" height="22" viewBox="0 0 156 22" fill="none" class="max-w-[90px] lg:max-w-[136px] text-black"><g clip-path="url(#clip0_101_2552)"><path d="M11.0247 0.116211C17.1134 0.116211 22.0494 5.01553 22.0494 11.0585C22.0494 17.1015 17.1134 22.0009 11.0247 22.0009C4.93606 22.0009 0 17.1015 0 11.0585C0 5.01553 4.93606 0.116211 11.0247 0.116211Z" fill="currentColor"></path><path d="M25.1765 21.9999H22.0483V0.116211H25.1765V21.9999Z" fill="currentColor"></path><path fill-rule="evenodd" clip-rule="evenodd" d="M37.0206 5.90527C38.0555 5.90527 39.0315 6.14574 39.9477 6.62668L40.1165 6.71857C40.757 7.07829 41.2769 7.5084 41.6732 8.01182V6.19853H44.8318V21.7088H41.6732V19.8672C41.2435 20.4155 40.6677 20.8867 39.9507 21.2787H39.9487C39.0335 21.7606 38.0565 22.0011 37.0216 22.0011C35.6355 22.0011 34.3839 21.6521 33.2705 20.9512H33.2695C32.1778 20.2513 31.3155 19.2924 30.6838 18.0793L30.6818 18.0763C30.0687 16.8427 29.7637 15.4615 29.7637 13.9375C29.7637 12.4136 30.0687 11.0431 30.6818 9.82707L30.8035 9.59833C31.4234 8.47517 32.2454 7.59149 33.2695 6.95415L33.4804 6.82707C34.5408 6.21124 35.7219 5.90527 37.0216 5.90527H37.0206ZM37.4277 8.72834C36.64 8.72834 35.9298 8.91798 35.2942 9.2953L35.1676 9.3735C34.4986 9.80361 33.967 10.4126 33.5717 11.2063C33.1979 11.9786 33.0076 12.8779 33.0076 13.9092C33.0076 14.9405 33.196 15.828 33.5707 16.6404C33.965 17.4351 34.4986 18.0548 35.1696 18.5045L35.2961 18.5856C35.9318 18.9796 36.641 19.177 37.4277 19.177C38.5842 19.177 39.5475 18.7841 40.3274 17.9991L40.4009 17.9229C41.1543 17.1291 41.58 16.1242 41.6722 14.8965V12.9502C41.58 11.741 41.1631 10.7547 40.4284 9.98054L40.3558 9.90625C39.576 9.12228 38.6039 8.72932 37.4267 8.72932L37.4277 8.72834Z" fill="currentColor"></path><path fill-rule="evenodd" clip-rule="evenodd" d="M66.7034 21.7077H63.5448V19.8651C63.1151 20.4145 62.5403 20.8847 61.8223 21.2776H61.8193C60.9041 21.7595 59.9281 22 58.8932 22C57.5071 22 56.2555 21.651 55.1421 20.9501H55.1411C54.0493 20.2502 53.1871 19.2913 52.5544 18.0782L52.5524 18.0753C51.9393 16.8407 51.6343 15.4604 51.6343 13.9365C51.6343 12.4125 51.9393 11.042 52.5534 9.826L52.675 9.59726C53.295 8.47312 54.117 7.59042 55.1421 6.9521C56.2555 6.2522 57.5071 5.90323 58.8932 5.90323C59.9281 5.90323 60.9041 6.14369 61.8193 6.62463L61.988 6.71652C62.6286 7.07625 63.1485 7.50733 63.5448 8.00978V0H66.7034V21.7077ZM59.2993 8.72825C58.493 8.72825 57.773 8.91789 57.1363 9.29521L57.0098 9.37341C56.3418 9.80254 55.8199 10.4106 55.4442 11.2033C55.0695 11.9765 54.8802 12.8768 54.8802 13.9081C54.8802 14.9394 55.0705 15.8798 55.4452 16.6716L55.5168 16.8182C55.8856 17.5406 56.383 18.1095 57.0098 18.5308L57.1363 18.609C57.773 18.9863 58.493 19.176 59.2993 19.176C60.4558 19.176 61.4191 18.783 62.1989 17.998L62.2735 17.9218C63.0278 17.1281 63.4526 16.1212 63.5448 14.8915V12.9521C63.4526 11.741 63.0367 10.7537 62.301 9.9785L62.2284 9.9042C61.4485 9.12023 60.4764 8.72727 59.2993 8.72727V8.72825Z" fill="currentColor"></path><path fill-rule="evenodd" clip-rule="evenodd" d="M75.6368 5.90527C77.3446 5.90527 78.7375 6.27086 79.8018 7.01671L79.999 7.15747C80.9662 7.87399 81.6587 8.76842 82.0707 9.83978L82.1531 10.049C82.5514 11.0969 82.7515 12.1888 82.7515 13.3237C82.7515 13.5651 82.7319 13.9209 82.6926 14.3901L82.6799 14.5455H71.3452C71.4462 15.9893 71.8867 17.1164 72.6518 17.9424L72.7293 18.0196C73.5346 18.8085 74.5577 19.2054 75.8114 19.2054C76.8335 19.2054 77.6379 18.9864 78.2402 18.5641C78.8591 18.1242 79.3055 17.441 79.5684 16.4947L79.6145 16.3285L79.7802 16.3774L82.7319 17.2435L82.6838 17.4058C82.2659 18.8261 81.4488 19.9512 80.2344 20.7723C79.0377 21.5944 77.5398 22.0001 75.7525 22.0001C74.2919 22.0001 72.9834 21.6619 71.8308 20.9825H71.8288C70.6791 20.2826 69.7767 19.3246 69.1234 18.1106V18.1076C68.4887 16.873 68.1738 15.482 68.1738 13.9385C68.1738 12.395 68.4877 11.0128 69.1224 9.79775C69.7551 8.58367 70.6379 7.6345 71.769 6.95415L71.9828 6.82707C73.0638 6.21221 74.2821 5.90527 75.6348 5.90527H75.6368ZM75.6368 8.49472C74.493 8.49472 73.568 8.83294 72.849 9.50156C72.1849 10.1164 71.7385 10.9698 71.5149 12.0734H79.4026C79.3006 11.003 78.9229 10.1594 78.2775 9.52697L78.2745 9.52404C77.6134 8.84076 76.7403 8.49472 75.6378 8.49472H75.6368Z" fill="currentColor"></path><path fill-rule="evenodd" clip-rule="evenodd" d="M90.9923 5.90527C92.0262 5.90527 93.0032 6.14574 93.9184 6.62668L94.0872 6.71857C94.7277 7.07829 95.2476 7.50938 95.6439 8.01182V6.19853H98.8025V21.7088H95.6439V19.8662C95.2143 20.4155 94.6384 20.8857 93.9214 21.2787H93.9184C93.0032 21.7606 92.0272 22.0011 90.9923 22.0011C89.6053 22.0011 88.3536 21.6521 87.2402 20.9512H87.2393C86.1475 20.2513 85.2852 19.2924 84.6535 18.0793V18.0763C84.0385 16.8417 83.7334 15.4615 83.7334 13.9375C83.7334 12.4136 84.0385 11.0431 84.6516 9.82707L84.7732 9.59833C85.3931 8.47419 86.2152 7.59149 87.2402 6.95415L87.4511 6.82707C88.5115 6.21124 89.6926 5.90527 90.9923 5.90527ZM91.3984 8.72834C90.6107 8.72834 89.9005 8.91798 89.2649 9.2953L89.1384 9.3735C88.4703 9.80361 87.9377 10.4116 87.5434 11.2044C87.1696 11.9766 86.9793 12.8769 86.9793 13.9082C86.9793 14.9395 87.1677 15.8271 87.5424 16.6394L87.6179 16.786C88.0044 17.5104 88.5115 18.0812 89.1413 18.5035L89.2678 18.5846C89.9035 18.9786 90.6127 19.176 91.3984 19.176C92.5559 19.176 93.5182 18.7831 94.2981 17.9981L94.3726 17.9219C95.126 17.1281 95.5517 16.1233 95.6439 14.8955V12.9493C95.5517 11.7401 95.1358 10.7538 94.4001 9.97956L94.3275 9.90527C93.5476 9.1213 92.5755 8.72834 91.3984 8.72834Z" fill="currentColor"></path><path d="M50.1619 22.0002H47.0317V0.29248H50.1619V22.0002Z" fill="currentColor"></path><path fill-rule="evenodd" clip-rule="evenodd" d="M116.4 5.90527C117.434 5.90527 118.41 6.14574 119.327 6.62668L119.495 6.71857C120.136 7.07829 120.656 7.5084 121.052 8.01182V6.19853H124.211V21.7088H121.052V19.8672C120.622 20.4155 120.047 20.8867 119.33 21.2787H119.328C118.412 21.7606 117.435 22.0011 116.401 22.0011C115.014 22.0011 113.763 21.6521 112.649 20.9512H112.648C111.557 20.2513 110.694 19.2924 110.063 18.0793L110.061 18.0763C109.448 16.8427 109.143 15.4615 109.143 13.9375C109.143 12.4136 109.448 11.0431 110.061 9.82707L110.182 9.59833C110.802 8.47517 111.624 7.59149 112.648 6.95415L112.859 6.82707C113.92 6.21124 115.101 5.90527 116.401 5.90527H116.4ZM116.806 8.72834C116.018 8.72834 115.308 8.91798 114.672 9.2953L114.546 9.3735C113.877 9.80361 113.345 10.4126 112.95 11.2063C112.576 11.9786 112.386 12.8779 112.386 13.9092C112.386 14.9405 112.574 15.828 112.949 16.6404C113.343 17.4351 113.877 18.0548 114.548 18.5045L114.674 18.5856C115.31 18.9796 116.019 19.177 116.806 19.177C117.962 19.177 118.925 18.7841 119.705 17.9991L119.779 17.9229C120.532 17.1291 120.958 16.1242 121.05 14.8965V12.9502C120.958 11.741 120.541 10.7547 119.806 9.98054L119.734 9.90625C118.954 9.12228 117.982 8.72932 116.805 8.72932L116.806 8.72834Z" fill="currentColor"></path><path d="M107.826 22.0002H104.696V0.29248H107.826V22.0002Z" fill="currentColor"></path><path fill-rule="evenodd" clip-rule="evenodd" d="M126.523 0H129.682V8.01173C130.078 7.50929 130.598 7.0782 131.238 6.71848L131.407 6.62659C132.322 6.14565 133.298 5.90518 134.333 5.90518C135.719 5.90518 136.971 6.25415 138.084 6.95406C139.109 7.5914 139.931 8.47507 140.551 9.59922L140.673 9.82796C141.287 11.044 141.592 12.4154 141.592 13.9394C141.592 15.4633 141.287 16.8436 140.674 18.0782L140.672 18.0811C140.039 19.2942 139.177 20.2532 138.085 20.9521H138.084C136.971 21.653 135.719 22.002 134.333 22.002C133.298 22.002 132.322 21.7615 131.407 21.2805H131.404C130.686 20.8866 130.111 20.4164 129.682 19.8671V21.7097H126.523V0ZM130.998 9.90616L130.925 9.98045C130.19 10.7556 129.773 11.7429 129.682 12.9541V14.8934C129.774 16.1232 130.199 17.129 130.953 17.9238L131.027 18C131.807 18.7849 132.77 19.1779 133.927 19.1779C134.733 19.1779 135.453 18.9883 136.09 18.6109L136.217 18.5327C136.843 18.1114 137.341 17.5425 137.71 16.8201L137.781 16.6735C138.156 15.8817 138.346 14.9619 138.346 13.9101C138.346 12.8583 138.157 11.9785 137.782 11.2063C137.407 10.4125 136.885 9.8045 136.217 9.37537L136.09 9.29716C135.453 8.91984 134.733 8.7302 133.927 8.7302C132.75 8.7302 131.778 9.12317 130.998 9.90714V9.90616Z" fill="currentColor"></path><path d="M156 17.2015C156 20.1037 153.376 22.0011 149.654 22.0011C145.933 22.0011 143.31 20.2767 142.733 16.6267H145.819C146.137 18.5524 147.579 19.6159 149.742 19.6159C151.905 19.6159 152.914 18.6961 152.914 17.4028C152.914 13.5807 143.223 16.7987 143.223 10.5045C143.223 8.11935 145.098 5.90527 148.992 5.90527C152.425 5.90527 154.962 7.48592 155.453 11.309H152.367C152.02 9.15356 150.81 8.34907 148.848 8.34907C147.146 8.34907 146.166 9.18191 146.166 10.3324C146.166 14.2415 156.001 10.9649 156.001 17.2015H156Z" fill="currentColor"></path></g><defs><clipPath id="clip0_101_2552"><rect width="156" height="22" fill="white"></rect></clipPath></defs></svg>