<svg xmlns="http://www.w3.org/2000/svg" width="107" height="26" viewBox="0 0 107 26"><title>BAM Logo</title><path d="M30.588 21.794l-3.44 3.441-3.442-3.44 3.441-3.442zm75.632-.054l-3.342 3.342-3.343-3.342 3.343-3.343zm0-9.141l-3.342 3.342-3.343-3.342 3.343-3.343zm0-9.142L102.878 6.8l-3.343-3.343 3.343-3.342zM65.765 21.794l-3.441 3.441-3.442-3.44 3.442-3.442zm0-9.176l-3.441 3.44-3.442-3.44 3.442-3.442zM87.24 25.085v-1.13c2.188 0 3.283-.917 3.283-2.75l-.261-17.514-7.946 21.394h-1.044L72.767 4.03l-.15 16.61c-.025 2.21 1.219 3.315 3.73 3.315v1.13h-8.989v-1.13c2.263 0 3.456-1.207 3.581-3.622l.298-16.827V3.13c0-.277-.031-.528-.093-.754-.062-.226-.224-.428-.485-.604-.26-.176-.64-.308-1.137-.396-.498-.088-1.17-.132-2.015-.132V.113h7.685l7.535 19.096 7.2-19.096h7.572v1.13c-.821 0-1.468.057-1.94.17-.473.113-.827.277-1.063.49-.237.214-.386.46-.448.736a3.942 3.942 0 0 0-.093.867l.41 17.43c0 2.013 1.132 3.019 3.395 3.019v1.13H87.24zM43.078 4.859l-3.369 8.099c-.275.602-.411 1.03-.411 1.28 0 .377.46.566 1.383.566l4.87-.016c.747 0 1.121-.15 1.121-.452 0-.126-.137-.54-.411-1.243L43.078 4.86zm3.253 20.226v-1.13c.696-.074 2.317-.357 2.807-.573.588-.26.358-1.058.184-1.574-.175-.516-1.683-4.633-1.683-4.633-.274-.653-1.034-.98-2.28-.98h-5.57c-.948 0-1.521.326-1.72.975l-1.271 3.898c-.1.225-.15.55-.15.975 0 1.15 1.096 1.723 3.29 1.723v1.319h-8.412v-1.319c.723-.05 1.34-.3 1.85-.752.511-.45.941-1.103 1.29-1.955L43.405.113h1.401s8.655 21.895 8.816 22.26c.234.53.64.849 1.052 1.037.45.206 1.028.38 1.901.545v1.13H46.331zM11.56 23.804c.831 0 1.6-.094 2.31-.282a4.741 4.741 0 0 0 1.85-.942 4.418 4.418 0 0 0 1.228-1.695c.293-.69.44-1.538.44-2.542 0-1.18-.178-2.134-.532-2.863a3.931 3.931 0 0 0-1.539-1.695c-.672-.401-1.484-.671-2.437-.81a22.42 22.42 0 0 0-3.188-.207h-1.32c-.708 0-1.062.478-1.062 1.432v8.135c0 .98.879 1.47 2.638 1.47h1.613zM9.884 1.582c-1.716 0-2.573.465-2.573 1.394v7.269c0 .703.355 1.054 1.066 1.054 1.69 0 3.045-.087 4.062-.263 1.017-.176 1.801-.458 2.353-.848.551-.389.913-.89 1.084-1.506.172-.615.258-1.362.258-2.241 0-3.24-1.606-4.86-4.816-4.86H9.883zm4.81 10.17c1.993.3 3.593.966 4.8 1.996 1.205 1.03 1.808 2.41 1.808 4.143 0 1.356-.221 2.504-.663 3.446-.442.942-1.05 1.701-1.824 2.279-.774.578-1.694.992-2.763 1.243-1.068.25-2.216.376-3.444.376-2.038 0-4.034-.025-5.987-.075a254.5 254.5 0 0 0-6.472-.075v-1.13c2.337 0 3.507-.703 3.507-2.11V3.917C3.655 2.16 2.437 1.281 0 1.281V.113h10.653c1.301 0 2.51.107 3.627.32 1.118.214 2.082.553 2.892 1.017.81.465 1.45 1.068 1.916 1.808.466.74.7 1.651.7 2.73 0 .83-.124 1.539-.37 2.129a4.569 4.569 0 0 1-1.052 1.544c-.456.44-.997.81-1.624 1.111a18.38 18.38 0 0 1-2.049.829v.15z" fill="#FFF" fill-rule="evenodd"></path></svg>