<svg width="100%" height="100%" viewBox="0 0 142 222" fill="none" xmlns="http://www.w3.org/2000/svg">
<rect x="1" y="2" width="140" height="218" fill="white"></rect>
<path d="M0.5 0.5V221.5H142V0.5H0.5ZM107.026 29.4862C101.932 29.4862 96.9602 29.4862 91.9954 29.4794C90.0258 29.4794 89.9715 29.4115 89.9715 27.4759V9.63382C89.9715 7.63704 90.2703 7.3382 92.2264 7.3382H133.629C135.544 7.3382 136.088 7.88833 136.088 9.86474C136.088 13.281 136.108 16.6973 136.067 20.1136C136.061 20.6569 135.904 21.241 135.646 21.7232C134.458 23.9645 133.242 26.199 131.972 28.4063C130.79 30.4575 129.506 32.4542 128.311 34.4986C126.382 37.8062 124.508 41.1341 122.586 44.4417C121.37 46.52 120.113 48.5644 118.891 50.6359C118.728 50.9143 118.674 51.2607 118.524 51.709C124.066 51.709 129.391 51.7022 134.709 51.709C136.726 51.709 136.733 51.7158 136.74 53.6718C136.74 59.6146 136.713 65.5642 136.76 71.5138C136.774 72.9673 136.38 73.5649 134.661 73.5649C120.195 73.5378 105.722 73.5514 91.2551 73.5514C89.4757 73.5514 88.9935 73.0556 88.9935 71.2693C88.9935 68.4303 89.1497 65.5778 88.9459 62.7524C88.7761 60.3277 89.6183 58.3989 90.8476 56.4428C93.7613 51.8041 96.5256 47.0702 99.4121 42.411C100.56 40.5636 101.925 38.8453 103.08 36.998C104.486 34.7431 105.769 32.4135 107.087 30.1043C107.162 29.982 107.06 29.7647 107.026 29.4862ZM94.1145 79.6979C95.303 79.6843 96.0501 80.1734 96.7565 81.0359C98.4884 83.1346 100.254 85.2061 102.061 87.2368C103.752 89.1317 105.552 90.9248 107.243 92.8265C109.674 95.55 112.045 98.3278 114.789 101.017C114.802 100.671 114.836 100.318 114.836 99.9714V81.8713C114.836 79.9356 115.033 79.7251 116.928 79.7251C122.871 79.7183 128.821 79.7523 134.763 79.7047C136.373 79.6911 136.747 80.1394 136.747 81.7219C136.719 101.907 136.719 122.099 136.726 142.291C136.726 145.68 136.91 145.565 133.493 145.551C129.187 145.531 124.888 145.531 120.582 145.558C119.686 145.565 119.067 145.286 118.483 144.573C116.616 142.298 114.687 140.077 112.738 137.876C111.135 136.063 109.45 134.324 107.847 132.518C106.333 130.813 104.913 129.027 103.399 127.322C102.366 126.161 101.246 125.074 99.935 123.716V136.742C99.935 139.14 99.9214 141.537 99.9486 143.935C99.9554 145.028 99.4664 145.544 98.3797 145.544C91.9886 145.544 85.5976 145.544 79.2133 145.544C78.0994 145.544 77.6376 144.913 77.59 143.908C77.5493 143.113 77.59 142.311 77.59 141.517C77.59 121.637 77.6036 101.758 77.5629 81.8781C77.5561 80.3771 78.242 79.664 79.743 79.6911C84.538 79.7726 89.3263 79.7591 94.1213 79.6979H94.1145ZM8.07605 9.70853C8.07605 7.96983 8.70769 7.3382 10.426 7.3382C18.2773 7.3382 26.1286 7.29745 33.9799 7.35857C37.8988 7.39253 41.5188 8.75089 44.9894 10.4353C47.5703 11.6782 49.5671 13.7021 50.8983 16.1879C51.788 17.8655 52.4332 19.7876 52.6913 21.6621C53.0785 24.535 53.2075 27.5234 52.1412 30.2877C51.4484 32.0671 50.3685 33.7447 49.2275 35.3C48.3446 36.5157 47.1085 37.4666 45.9946 38.5736C49.0985 39.572 51.6726 41.3651 54.0157 43.7082C56.42 46.1193 57.6154 49.0466 58.1791 52.1844C58.5459 54.2015 58.2402 56.4021 57.9142 58.4668C57.6426 60.1851 56.9362 61.8355 56.3861 63.4995C55.5371 66.0532 53.4928 67.6968 51.5163 69.1978C48.9083 71.1742 45.7297 71.996 42.4901 72.6141C35.9496 73.8706 29.3615 73.4766 22.7871 73.5446C18.6169 73.5785 14.4468 73.5446 10.2766 73.5446C8.73486 73.5446 8.07605 72.8654 8.07605 71.3237V9.70853ZM61.3033 206.99C51.5231 217.714 34.9987 220.906 21.9992 214.393C0.163618 203.458 -2.42405 172.019 17.6185 157.892C25.0555 152.642 34.2245 151.012 43.1013 152.628C45.2272 153.015 47.353 153.572 49.3769 154.326C51.0477 154.951 52.603 155.909 54.1516 156.825C55.639 157.708 57.0517 158.714 58.4847 159.685C60.0944 160.785 60.3185 161.865 59.0417 163.298C57.303 165.261 55.4216 167.088 53.649 169.024C52.1548 170.667 50.7557 172.399 49.2615 174.043C48.134 175.286 47.6858 175.306 46.4565 174.253C42.7753 171.088 38.4557 170.151 33.7966 170.905C31.5824 171.258 29.6196 172.44 27.7858 173.791C25.7551 175.292 24.3492 177.18 23.473 179.551C22.3931 182.458 22.2913 185.433 22.9705 188.373C23.3508 190.037 24.1319 191.701 25.0963 193.121C26.6176 195.362 28.9404 196.734 31.3176 197.991C33.0563 198.914 34.8629 199.24 36.7917 199.301C39.4134 199.383 41.7498 198.507 43.8756 197.148C45.4173 196.17 46.7553 194.866 48.1612 193.685C48.4057 193.481 48.5415 193.155 48.9355 192.591C45.526 192.591 42.4697 192.591 39.4202 192.584C37.2468 192.584 36.9955 192.319 36.9955 190.153C37.0023 187.402 36.9819 184.651 36.9955 181.901C37.0091 180.366 37.2672 180.094 38.775 180.094C48.5416 180.087 58.3014 180.087 68.0679 180.094C69.6029 180.094 69.8338 180.339 69.8338 181.887C69.8474 191.246 67.7895 199.885 61.3033 206.99ZM37.403 145.714C19.6561 145.667 4.19115 130.283 4.36774 112.305C4.54432 94.7825 19.887 79.3583 37.8445 79.5485C55.3333 79.7387 71.2193 94.7349 70.4587 112.788C71.1107 130.813 55.0277 145.755 37.403 145.714ZM65.2969 73.6261C63.8027 73.6464 63.0963 73.0556 63.1099 71.4663C63.1643 61.1767 63.1371 50.8804 63.1371 40.5908V9.85116C63.1371 8.01058 63.7891 7.36537 65.6501 7.36537H79.2201C80.8297 7.36537 81.3391 7.834 81.3459 9.43007C81.3663 13.7361 81.3459 18.0353 81.3459 22.3413C81.3459 38.7095 81.3323 55.0777 81.3663 71.4459C81.3663 73.0556 80.9723 73.6464 79.2608 73.6261C74.6084 73.5582 69.9493 73.5649 65.2901 73.6261H65.2969ZM132.115 206.813C125.248 214.549 116.222 217.829 107.345 217.598C90.4537 217.15 74.1059 203.967 74.2281 184.468C74.2757 176.094 77.3184 168.439 83.1457 162.232C89.6658 155.284 97.9518 151.704 107.365 151.834C135.11 152.2 151.009 185.514 132.115 206.813Z" fill="black"></path>
</svg>