<svg width="306" height="58" viewBox="0 0 306 58" fill="none" xmlns="http://www.w3.org/2000/svg" class="w-48 sm:w-auto"><path d="M255.047 50.7403C254.894 50.5641 254.694 50.4266 254.45 50.3252C254.203 50.2239 253.903 50.1755 253.551 50.1755C253.197 50.1755 252.908 50.1996 252.661 50.248C252.414 50.2962 252.233 50.3494 252.115 50.4024L252.209 50.9938C252.298 50.96 252.441 50.9141 252.634 50.8586C252.828 50.8031 253.122 50.7766 253.516 50.7766C253.794 50.7766 254.017 50.82 254.186 50.9069C254.355 50.9938 254.488 51.1072 254.58 51.2496C254.674 51.392 254.735 51.5514 254.761 51.7275C254.79 51.9038 254.802 52.0848 254.802 52.2731V52.6061C254.773 52.5917 254.725 52.5771 254.653 52.5603C254.58 52.5434 254.493 52.5264 254.394 52.5095C254.295 52.4926 254.189 52.4782 254.082 52.4685C253.973 52.4589 253.872 52.4541 253.775 52.4541C253.449 52.4541 253.149 52.4854 252.871 52.5482C252.593 52.6109 252.356 52.71 252.156 52.845C251.955 52.9802 251.798 53.1516 251.687 53.3592C251.575 53.5668 251.52 53.8154 251.52 54.105C251.52 54.3947 251.571 54.6674 251.67 54.8774C251.771 55.0899 251.909 55.2612 252.085 55.3964C252.262 55.5316 252.47 55.6305 252.709 55.6933C252.949 55.756 253.209 55.7873 253.495 55.7873C253.717 55.7873 253.932 55.7778 254.145 55.7609C254.355 55.7439 254.548 55.7198 254.72 55.6933C254.892 55.6666 255.047 55.6402 255.177 55.616C255.307 55.5919 255.409 55.5701 255.479 55.5485V52.1644C255.479 51.882 255.445 51.6189 255.375 51.3751C255.305 51.1337 255.194 50.9238 255.042 50.7476L255.047 50.7403ZM254.807 55.0826C254.669 55.1091 254.5 55.1333 254.302 55.1501C254.104 55.167 253.874 55.1767 253.611 55.1767C253.395 55.1767 253.205 55.1574 253.035 55.1188C252.866 55.0801 252.722 55.0199 252.598 54.9377C252.477 54.8557 252.383 54.7446 252.317 54.6047C252.252 54.467 252.218 54.2957 252.218 54.0954C252.218 53.8661 252.267 53.6851 252.363 53.545C252.46 53.4074 252.586 53.2988 252.738 53.2192C252.89 53.1395 253.057 53.0888 253.236 53.0647C253.415 53.0406 253.589 53.0286 253.756 53.0286C254.048 53.0286 254.275 53.0478 254.442 53.0865C254.609 53.1251 254.73 53.1613 254.807 53.1951V55.085V55.0826Z" fill="#465E75"></path><path d="M293.358 49.3789C293.034 49.0361 292.645 48.7706 292.193 48.5799C291.741 48.3892 291.243 48.2951 290.699 48.2951C290.155 48.2951 289.672 48.3892 289.22 48.5799C288.768 48.7706 288.376 49.0361 288.048 49.3789C287.719 49.7217 287.462 50.1343 287.276 50.6194C287.09 51.1047 286.998 51.4185 286.998 52.0098C286.998 52.6012 287.088 53.1394 287.269 53.6294C287.451 54.1194 287.702 54.5369 288.026 54.8845C288.35 55.2321 288.739 55.5 289.191 55.6907C289.643 55.8813 290.146 55.9755 290.699 55.9755C291.253 55.9755 291.767 55.8813 292.222 55.6907C292.674 55.5 293.063 55.2321 293.387 54.8845C293.711 54.5369 293.957 54.1194 294.129 53.6294C294.3 53.1394 294.385 52.5987 294.385 52.0098C294.385 51.4208 294.294 51.1047 294.114 50.6194C293.933 50.1343 293.682 49.7217 293.358 49.3789ZM291.821 53.5715C291.559 53.9576 291.185 54.1484 290.699 54.1484C290.213 54.1484 289.836 53.9553 289.57 53.5715C289.304 53.1852 289.169 52.6663 289.169 52.0098C289.169 51.3533 289.302 51.0612 289.57 50.6847C289.836 50.3082 290.213 50.1199 290.699 50.1199C291.185 50.1199 291.559 50.3082 291.821 50.6847C292.082 51.0612 292.215 51.3533 292.215 52.0098C292.215 52.6663 292.084 53.1877 291.821 53.5715Z" fill="#465E75"></path><path d="M294.119 48.5153V46.6278L290.715 44.7426L287.312 46.6278V48.5153L290.715 46.6278L294.119 48.5153Z" fill="#465E75"></path><path d="M304.844 54.221C304.599 54.2643 304.365 54.2861 304.135 54.2861C303.659 54.2861 303.343 54.1534 303.185 53.8855C303.029 53.6199 302.948 53.2627 302.948 52.8162V50.4434H305.506V48.6743H302.948V46.1061L300.818 47.2501V48.6743H297.58V48.0371C297.58 47.8366 297.602 47.6509 297.645 47.4795C297.689 47.3081 297.759 47.1609 297.861 47.0378C297.96 46.9146 298.098 46.8157 298.274 46.7458C298.45 46.6733 298.668 46.6395 298.924 46.6395C299.084 46.6395 299.255 46.6564 299.439 46.6854C299.601 46.7095 299.818 46.7505 299.922 46.8036L300.278 45.1116C299.922 44.933 299.306 44.8751 299.306 44.8751C299.115 44.8533 298.917 44.8413 298.709 44.8413C297.633 44.8413 296.821 45.1261 296.273 45.6981C295.724 46.2677 295.451 47.0401 295.451 48.0105V55.9153H297.58V50.4459H300.818V52.8475C300.818 53.3326 300.865 53.7744 300.955 54.175C301.044 54.5757 301.203 54.9161 301.433 55.1961C301.663 55.4761 301.967 55.6957 302.347 55.8526C302.729 56.0095 303.21 56.0891 303.79 56.0891C304.247 56.0891 304.633 56.0505 304.947 55.9757C305.262 55.8984 305.547 55.8092 305.806 55.7053L305.506 54.0495C305.306 54.1268 305.085 54.1847 304.842 54.2282L304.844 54.221Z" fill="#465E75"></path><path d="M286.093 54.2603C285.996 54.2603 285.899 54.2385 285.796 54.2048C285.769 54.1951 285.74 54.1855 285.713 54.1758C285.561 54.1082 285.445 54.0238 285.363 53.9199C285.281 53.8162 285.227 53.6858 285.198 53.5337C285.17 53.3817 285.155 53.2104 285.155 53.0197V44.6659L283.026 45.7206V53.4493C283.026 53.85 283.066 54.2072 283.146 54.5258C283.226 54.8444 283.379 55.1147 283.603 55.3393C283.828 55.5636 284.133 55.7375 284.517 55.8606C284.831 55.9619 285.22 56.0223 285.689 56.0488L285.986 56.0609C285.986 56.0609 285.999 56.0609 286.005 56.0609C286.013 56.0609 286.018 56.0609 286.025 56.0609C286.409 56.0585 286.658 56.0392 286.975 55.9402C287.047 55.9185 287.115 55.892 287.178 55.863L286.267 54.2579C286.204 54.2651 286.172 54.2651 286.088 54.2628L286.093 54.2603Z" fill="#465E75"></path><path d="M250.194 50.8856C250.056 50.6684 249.861 50.4994 249.607 50.3764C249.353 50.2556 249.022 50.1953 248.613 50.1953C248.365 50.1953 248.137 50.2194 247.932 50.2678C247.727 50.316 247.55 50.3739 247.398 50.4438C247.245 50.5139 247.12 50.5815 247.018 50.6466C246.917 50.7119 246.849 50.7601 246.815 50.7867C246.51 50.3933 246.017 50.1953 245.338 50.1953C244.825 50.1953 244.408 50.2291 244.086 50.2991C243.765 50.369 243.501 50.4294 243.301 50.485V55.6624H243.975V50.9508C244.038 50.9242 244.18 50.8928 244.405 50.8566C244.63 50.8228 244.905 50.806 245.232 50.806C245.522 50.806 245.756 50.8494 245.932 50.9363C246.109 51.0232 246.247 51.1511 246.344 51.3201C246.44 51.489 246.506 51.7039 246.534 51.9645C246.566 52.2228 246.58 52.5293 246.58 52.8818V55.6624H247.255V52.6115C247.255 52.3628 247.241 52.1262 247.209 51.9018C247.177 51.6773 247.131 51.4746 247.069 51.2935C247.103 51.267 247.161 51.2236 247.241 51.168C247.32 51.1125 247.422 51.057 247.547 51.0015C247.673 50.946 247.818 50.9001 247.99 50.8615C248.159 50.8228 248.348 50.8035 248.556 50.8035C248.831 50.8035 249.058 50.847 249.23 50.9339C249.404 51.0208 249.537 51.1487 249.631 51.3176C249.725 51.4866 249.786 51.7015 249.817 51.9621C249.848 52.2204 249.863 52.527 249.863 52.8794V55.6599H250.537V52.662C250.537 52.3024 250.513 51.9694 250.465 51.6652C250.417 51.3611 250.322 51.1004 250.185 50.8807L250.194 50.8856Z" fill="#465E75"></path><path d="M260.497 50.6228C260.379 50.5336 260.19 50.437 259.932 50.3379C259.673 50.2365 259.366 50.1883 259.013 50.1883C258.624 50.1883 258.281 50.2583 257.979 50.3959C257.676 50.5336 257.423 50.729 257.215 50.9776C257.007 51.2262 256.85 51.5231 256.741 51.8659C256.633 52.2086 256.579 52.5828 256.579 52.993C256.579 53.4299 256.644 53.8185 256.773 54.1661C256.901 54.5113 257.079 54.8057 257.311 55.0471C257.544 55.2884 257.822 55.4743 258.143 55.6022C258.464 55.7302 258.825 55.7929 259.219 55.7929C259.698 55.7929 260.092 55.7615 260.403 55.6988C260.715 55.636 260.971 55.5709 261.172 55.5009V47.6154L260.497 47.7409V50.6252V50.6228ZM260.497 55.0326C260.393 55.0664 260.239 55.1002 260.036 55.1316C259.833 55.1629 259.562 55.1775 259.231 55.1775C258.648 55.1775 258.182 54.9892 257.829 54.6127C257.476 54.2361 257.3 53.6954 257.3 52.9882C257.3 52.6914 257.331 52.4089 257.394 52.1434C257.457 51.878 257.556 51.6462 257.696 51.4483C257.834 51.2503 258.015 51.0935 258.242 50.9752C258.467 50.8569 258.747 50.799 259.079 50.799C259.238 50.799 259.39 50.8135 259.536 50.8448C259.68 50.8762 259.816 50.9149 259.941 50.9632C260.067 51.0115 260.176 51.0645 260.27 51.1201C260.365 51.1755 260.442 51.2262 260.505 51.2745V55.0302L260.497 55.0326Z" fill="#465E75"></path><path d="M264.674 50.1759C264.377 50.1759 264.087 50.2338 263.806 50.3473C263.526 50.4607 263.277 50.6369 263.057 50.871C262.839 51.1051 262.663 51.3997 262.528 51.7472C262.392 52.0971 262.325 52.5075 262.325 52.9758C262.325 53.3837 262.373 53.7602 262.469 54.1006C262.566 54.4433 262.721 54.7378 262.936 54.9888C263.151 55.2374 263.424 55.4305 263.758 55.5705C264.092 55.7105 264.492 55.778 264.964 55.778C265.324 55.778 265.639 55.7395 265.904 55.6647C266.17 55.5898 266.354 55.5221 266.45 55.4667L266.325 54.8851C266.228 54.9333 266.071 54.9937 265.856 55.0611C265.641 55.1312 265.351 55.165 264.983 55.165C264.319 55.165 263.833 54.9888 263.528 54.6364C263.224 54.284 263.06 53.7795 263.04 53.1206H266.813C266.82 53.0723 266.825 53.0193 266.828 52.9661C266.833 52.9106 266.833 52.8551 266.833 52.7996C266.833 51.9065 266.637 51.2475 266.245 50.818C265.853 50.3883 265.329 50.1734 264.672 50.1734L264.674 50.1759ZM263.065 52.5509C263.079 52.3168 263.125 52.0899 263.204 51.8776C263.284 51.6627 263.395 51.4744 263.538 51.3127C263.681 51.151 263.848 51.0206 264.036 50.9241C264.227 50.8275 264.442 50.7793 264.686 50.7793C265.143 50.7793 265.496 50.9338 265.745 51.2452C265.994 51.5565 266.127 51.9933 266.139 52.5534H263.062L263.065 52.5509Z" fill="#465E75"></path><path d="M274.339 50.9747C274.131 50.7262 273.878 50.5331 273.575 50.3931C273.273 50.2555 272.93 50.1855 272.541 50.1855C272.188 50.1855 271.881 50.2363 271.622 50.3351C271.361 50.4365 271.173 50.5306 271.057 50.62V47.6101L270.383 47.7356V55.4981C270.583 55.5681 270.839 55.6332 271.151 55.696C271.463 55.7587 271.857 55.7901 272.335 55.7901C272.73 55.7901 273.089 55.7274 273.411 55.5994C273.732 55.4715 274.01 55.2856 274.242 55.0443C274.475 54.8029 274.656 54.5085 274.782 54.1633C274.91 53.8181 274.973 53.4271 274.973 52.9902C274.973 52.5823 274.919 52.2058 274.811 51.8631C274.704 51.5202 274.545 51.2258 274.337 50.9747H274.339ZM273.726 54.6123C273.372 54.9888 272.903 55.177 272.324 55.177C271.99 55.177 271.722 55.1626 271.518 55.1312C271.313 55.0998 271.161 55.0684 271.057 55.0323V51.2766C271.12 51.2282 271.197 51.1752 271.291 51.122C271.385 51.0689 271.495 51.0158 271.62 50.9652C271.746 50.9168 271.879 50.8758 272.026 50.8469C272.174 50.8179 272.324 50.801 272.483 50.801C272.816 50.801 273.094 50.8589 273.319 50.9772C273.544 51.0955 273.726 51.2524 273.866 51.4503C274.004 51.6482 274.105 51.88 274.167 52.1454C274.231 52.4109 274.262 52.6934 274.262 52.9902C274.262 53.695 274.085 54.2381 273.732 54.6146L273.726 54.6123Z" fill="#465E75"></path><path d="M278.9 51.5804C278.806 51.9738 278.707 52.36 278.606 52.7366C278.504 53.1131 278.393 53.492 278.274 53.871C278.156 54.2499 278.018 54.6555 277.864 55.0827C277.651 54.6676 277.455 54.2476 277.274 53.8179C277.095 53.3883 276.93 52.9707 276.781 52.5628C276.631 52.1549 276.498 51.759 276.382 51.3752C276.266 50.9914 276.167 50.6342 276.092 50.3011H275.374C275.485 50.7501 275.616 51.2087 275.768 51.677C275.92 52.1428 276.089 52.6111 276.273 53.0769C276.457 53.5428 276.655 54.0061 276.867 54.4624C277.08 54.9186 277.298 55.3578 277.525 55.7802C277.431 56.0216 277.334 56.222 277.232 56.3812C277.131 56.5406 277.02 56.6709 276.894 56.7698C276.769 56.8712 276.629 56.9412 276.473 56.9823C276.319 57.0233 276.143 57.045 275.947 57.045C275.806 57.045 275.674 57.0257 275.546 56.9871C275.417 56.9485 275.338 56.9194 275.311 56.8978L275.176 57.4577C275.209 57.4795 275.299 57.5085 275.441 57.5519C275.584 57.5953 275.741 57.6147 275.916 57.6147C276.222 57.6147 276.488 57.5809 276.713 57.5108C276.94 57.4409 277.138 57.3346 277.307 57.1898C277.479 57.045 277.634 56.8591 277.772 56.6347C277.909 56.4102 278.045 56.1423 278.177 55.8309C278.511 55.0441 278.819 54.1776 279.098 53.229C279.379 52.2804 279.633 51.3028 279.86 50.3011H279.183C279.084 50.7621 278.987 51.187 278.893 51.5828L278.9 51.5804Z" fill="#465E75"></path><path fill-rule="evenodd" clip-rule="evenodd" d="M27.7332 24.7173L23.3987 17.2069L31.5066 2.99112L40.1007 3.02762L27.7332 24.7173ZM21.9039 12.4247L26.1635 4.85863H10.1167C6.23181 4.85863 3.80328 9.04324 5.7073 12.4247H21.9039ZM18.5609 16.1617L9.96684 16.1982L22.3343 37.9052L26.6688 30.3775L18.5609 16.1617Z" fill="#F27405"></path><path fill-rule="evenodd" clip-rule="evenodd" d="M92.5794 26.7904C92.4295 26.8096 92.3546 26.8096 92.149 26.8096C91.907 26.8096 91.6822 26.7539 91.4401 26.6789C91.3651 26.6597 91.3094 26.6424 91.2537 26.604C90.881 26.4349 90.6005 26.2313 90.4122 25.9873C90.2239 25.7433 90.0952 25.4263 90.0202 25.0535C89.9453 24.6808 89.9088 24.2696 89.9088 23.82V3.68088L84.7904 6.22085V24.8287C84.7904 25.8009 84.8846 26.6597 85.0901 27.4263C85.2765 28.1929 85.6512 28.8462 86.193 29.388C86.7348 29.9298 87.463 30.341 88.3967 30.6388C89.1441 30.8809 90.0971 31.0307 91.2172 31.0864L91.9262 31.1229H92.0203C92.9541 31.1229 93.5516 31.0672 94.299 30.8232C94.4681 30.7675 94.6352 30.7118 94.7851 30.6368L92.5813 26.7885L92.5794 26.7904ZM81.3243 26.5925C81.6106 26.5175 81.8738 26.4368 82.1198 26.3485L82.1217 26.3523L84.1698 30.3525C83.5377 30.6368 82.7711 30.9 81.8623 31.1421C80.5212 31.4995 78.9669 31.6782 77.2012 31.6782C73.422 31.6782 70.5439 30.6272 68.5649 28.5253C66.586 26.4234 65.5965 23.966 65.5965 20.0984C65.5965 18.1771 65.8982 16.4595 66.5014 14.9513C67.1067 13.4411 67.9328 12.1673 68.9838 11.1279C70.0347 10.0884 71.2855 9.29876 72.7399 8.76272C74.1924 8.22667 75.7698 7.95769 77.4683 7.95769C78.4501 7.95769 79.3454 8.02878 80.1504 8.1748C80.9209 8.31313 81.5952 8.47452 82.1812 8.6532L81.0265 13.1068L80.9225 13.0744C80.8283 13.045 80.735 13.0158 80.6365 12.9877C79.6874 12.7206 78.6076 12.5861 77.401 12.5861C76.596 12.5861 75.8063 12.7187 75.0359 12.9877C74.2635 13.2567 73.5834 13.6851 72.9897 14.2788C72.396 14.8725 71.9215 15.6372 71.5641 16.5767C71.2067 17.5143 71.0281 18.6555 71.0281 19.9966C71.0281 21.0687 71.1452 21.5413 71.3796 22.4693C71.614 23.3973 71.9925 24.1966 72.519 24.8671C73.0454 25.5377 73.7333 26.0699 74.5825 26.4599C75.4317 26.8499 76.4615 27.0459 77.6681 27.0459C78.4289 27.0459 79.111 27.0017 79.7143 26.9114C80.3176 26.8211 80.8555 26.7154 81.3243 26.5925ZM50.4028 23.2974C51.5806 26.2851 52.7391 28.8827 53.8785 31.1056H58.0208C59.1428 28.8827 60.2995 26.287 61.4772 23.2974C62.6358 20.3079 63.7559 17.057 64.803 13.5449H59.6289C59.4061 14.4037 59.1448 15.3567 58.845 16.3654C58.5807 17.2608 58.2997 18.1713 58.0181 19.0835L57.9113 19.4299C57.5943 20.475 57.258 21.4837 56.9218 22.4559C56.8271 22.7294 56.7353 22.997 56.6458 23.2584L56.6458 23.2584C56.4176 23.9245 56.2033 24.5498 55.9881 25.1265C55.671 24.3234 55.3521 23.4454 55.0351 22.4559C54.939 22.1578 54.8413 21.8579 54.7431 21.5563L54.7426 21.5548L54.7422 21.5536L54.7421 21.5532L54.742 21.5531L54.742 21.553C54.5146 20.8546 54.2841 20.1469 54.0629 19.4299C53.7459 18.402 53.4289 17.3741 53.1292 16.3654C52.8313 15.3567 52.57 14.4037 52.3453 13.5449H47.077C48.1241 17.057 49.225 20.3079 50.4028 23.2974ZM106.682 31.1998C108.009 30.975 109.11 30.7502 109.952 30.5081H109.95V13.5449H104.981V27.0901C104.664 27.1266 104.309 27.165 103.917 27.2015C103.506 27.2381 103.133 27.2573 102.778 27.2573C101.619 27.2573 100.835 26.9018 100.405 26.1929C99.9745 25.482 99.7689 24.3234 99.7689 22.7172V13.5449H94.8004V23.3532C94.8004 24.5482 94.931 25.6511 95.1731 26.6597C95.4171 27.6511 95.8283 28.51 96.4066 29.2381C96.9849 29.9663 97.7707 30.5273 98.7602 30.9193C99.7497 31.3112 101.02 31.5168 102.478 31.5168C103.936 31.5168 105.356 31.4054 106.682 31.1998ZM141.486 22.4559C141.486 20.9054 141.728 19.5413 142.195 18.3654C142.681 17.1877 143.298 16.2174 144.082 15.4508C144.866 14.6669 145.763 14.0867 146.772 13.6755C147.781 13.2836 148.828 13.078 149.892 13.078C152.376 13.078 154.357 13.8446 155.796 15.3567C157.235 16.8879 157.963 19.1301 157.963 22.0812C157.963 22.3107 157.951 22.5645 157.936 22.8438L157.927 23.0342L157.925 23.0679L157.925 23.0682V23.0683V23.0684C157.907 23.3919 157.889 23.6963 157.852 23.9488H146.568C146.68 24.9767 147.166 25.7798 148.007 26.3773C148.849 26.9748 149.988 27.2745 151.408 27.2745C152.322 27.2745 153.22 27.1996 154.098 27.0325C154.976 26.8634 155.685 26.6597 156.246 26.4157L156.918 30.4505C156.657 30.5811 156.302 30.7118 155.854 30.8424C155.406 30.9731 154.92 31.0845 154.359 31.1979C153.817 31.292 153.239 31.3842 152.603 31.4399C151.986 31.5149 151.352 31.5341 150.735 31.5341C149.148 31.5341 147.784 31.292 146.607 30.8251C145.429 30.3582 144.478 29.7223 143.711 28.9019C142.945 28.0988 142.385 27.1266 142.011 26.0065C141.675 24.9421 141.488 23.7451 141.488 22.4578L141.486 22.4559ZM153.181 20.55C153.162 20.1196 153.087 19.7084 152.957 19.3165C152.826 18.9245 152.639 18.5691 152.395 18.2521C152.134 17.9351 151.817 17.6911 151.423 17.4855C151.031 17.2799 150.545 17.1857 149.967 17.1857C149.389 17.1857 148.939 17.2799 148.528 17.4663C148.136 17.6526 147.8 17.9139 147.519 18.2136C147.258 18.5307 147.052 18.8861 146.902 19.2973C146.753 19.7084 146.66 20.1196 146.585 20.548H153.179L153.181 20.55ZM169.953 17.6309L169.954 17.6309L169.954 17.631C170.491 17.7483 170.966 17.8521 171.376 17.9542H171.378L172.22 13.8446C171.956 13.7331 171.62 13.639 171.247 13.5641L171.072 13.5304L171.072 13.5303L171.072 13.5303C170.743 13.467 170.425 13.4058 170.108 13.3585C169.716 13.3028 169.342 13.2643 168.969 13.2278C168.594 13.1913 168.258 13.1721 167.997 13.1721C166.502 13.1721 165.157 13.3028 163.943 13.5833C162.728 13.8638 161.683 14.1443 160.786 14.4613V31.0864H165.754V17.6737C165.977 17.5988 166.314 17.5431 166.744 17.4874C167.172 17.4317 167.547 17.4124 167.864 17.4124C168.556 17.4124 169.209 17.4682 169.806 17.5988L169.953 17.6309ZM141.767 29.7799L139.638 26.2678C139.152 26.4541 138.629 26.5848 138.032 26.6981C137.453 26.8096 136.873 26.848 136.331 26.848C135.192 26.848 134.425 26.531 134.053 25.8758C133.68 25.2399 133.492 24.381 133.492 23.2974V17.5988H139.638V13.3393H133.492V7.13728L128.373 9.88283V23.3723C128.373 24.5501 128.485 25.6145 128.69 26.5675C128.915 27.5397 129.288 28.3428 129.849 29.0325C130.391 29.705 131.138 30.2276 132.053 30.6195C132.967 30.9923 134.126 31.1805 135.528 31.1805C136.631 31.1805 137.565 31.0864 138.312 30.9C138.612 30.8251 138.91 30.7502 139.19 30.6579C140.088 30.4332 141.413 30.0412 141.769 29.7799H141.767ZM125.103 22.8671C125.514 23.3167 125.793 23.82 125.962 24.3811H125.958C126.125 24.9229 126.2 25.5761 126.22 26.3235C126.22 28.0431 125.566 29.3496 124.258 30.2468C122.949 31.1249 121.101 31.5725 118.728 31.5725C117.178 31.5725 115.871 31.4419 114.843 31.1806C113.816 30.9001 113.087 30.6945 112.695 30.5081V26.0814C112.863 26.1805 113.161 26.31 113.436 26.4293C113.47 26.4442 113.504 26.4589 113.537 26.4734C114.379 26.8096 115.237 27.0709 116.135 27.2573C117.013 27.4436 117.91 27.5378 118.769 27.5378C119.683 27.5378 120.338 27.4629 120.711 27.2765C121.086 27.1074 121.272 26.7539 121.272 26.2486C121.272 25.8547 121.03 25.5012 120.544 25.2015C120.039 24.8825 119.311 24.5463 118.302 24.1736C117.535 23.8931 116.826 23.5933 116.19 23.2763C115.554 22.9593 115.013 22.5866 114.565 22.1562C114.135 21.7258 113.779 21.2032 113.537 20.6057C113.295 20.0082 113.164 19.28 113.164 18.4385C113.164 16.7957 113.762 15.4873 114.995 14.5344C116.227 13.5814 117.91 13.0953 120.039 13.0953C121.105 13.0953 122.131 13.1894 123.103 13.3758C124.073 13.5622 124.859 13.7678 125.438 13.9926L124.579 17.8601C124 17.6546 123.364 17.4682 122.692 17.3183C122.02 17.1512 121.255 17.0763 120.413 17.0763C118.863 17.0763 118.079 17.5258 118.079 18.3847C118.079 18.5902 118.098 18.7766 118.173 18.9265C118.229 19.0744 118.359 19.2243 118.565 19.3741C118.771 19.524 119.051 19.6719 119.387 19.841C119.741 20.0101 120.171 20.1965 120.713 20.402C121.816 20.8132 122.713 21.2051 123.422 21.5971C124.131 21.989 124.692 22.4194 125.103 22.8671Z" fill="black"></path><path d="M185.071 31.5618V9.48301H192.941C194.659 9.48301 196.082 9.79565 197.21 10.4209C198.339 11.0462 199.183 11.9015 199.744 12.9867C200.304 14.0648 200.585 15.2794 200.585 16.6306C200.585 17.989 200.301 19.2108 199.733 20.296C199.173 21.3741 198.324 22.2294 197.189 22.8618C196.061 23.4871 194.641 23.7997 192.931 23.7997H187.519V20.9752H192.629C193.714 20.9752 194.594 20.7883 195.27 20.4146C195.946 20.0337 196.441 19.5162 196.758 18.8622C197.074 18.2082 197.232 17.4643 197.232 16.6306C197.232 15.7969 197.074 15.0566 196.758 14.4098C196.441 13.7629 195.942 13.2562 195.259 12.8897C194.584 12.5232 193.692 12.3399 192.586 12.3399H188.403V31.5618H185.071ZM207.455 9.48301V31.5618H204.231V9.48301H207.455ZM216.61 31.9284C215.561 31.9284 214.612 31.7343 213.764 31.3462C212.916 30.9509 212.244 30.3795 211.748 29.6321C211.259 28.8846 211.015 27.9683 211.015 26.883C211.015 25.9487 211.195 25.1797 211.554 24.576C211.913 23.9722 212.399 23.4943 213.01 23.1421C213.62 22.79 214.303 22.524 215.058 22.3444C215.812 22.1647 216.582 22.0281 217.365 21.9347C218.357 21.8197 219.162 21.7263 219.78 21.6544C220.398 21.5753 220.847 21.4496 221.127 21.2771C221.408 21.1046 221.548 20.8243 221.548 20.4362V20.3607C221.548 19.4192 221.282 18.6897 220.75 18.1722C220.225 17.6548 219.442 17.396 218.4 17.396C217.315 17.396 216.459 17.6368 215.834 18.1183C215.216 18.5927 214.788 19.1209 214.551 19.7031L211.522 19.0131C211.881 18.0069 212.406 17.1948 213.096 16.5767C213.793 15.9514 214.594 15.4986 215.5 15.2183C216.405 14.9308 217.358 14.7871 218.357 14.7871C219.018 14.7871 219.719 14.8662 220.459 15.0243C221.206 15.1752 221.904 15.4555 222.55 15.8652C223.204 16.2748 223.74 16.8606 224.157 17.6224C224.574 18.3771 224.782 19.3581 224.782 20.5655V31.5618H221.634V29.2979H221.505C221.296 29.7147 220.984 30.1244 220.567 30.5269C220.15 30.9294 219.614 31.2636 218.96 31.5295C218.306 31.7954 217.523 31.9284 216.61 31.9284ZM217.311 29.341C218.202 29.341 218.964 29.1649 219.597 28.8128C220.236 28.4606 220.721 28.0006 221.052 27.4328C221.39 26.8579 221.559 26.2434 221.559 25.5893V23.4548C221.444 23.5698 221.221 23.6776 220.89 23.7782C220.567 23.8716 220.197 23.9543 219.78 24.0261C219.363 24.0908 218.957 24.1519 218.562 24.2094C218.166 24.2597 217.836 24.3028 217.57 24.3388C216.944 24.4178 216.373 24.5508 215.856 24.7377C215.345 24.9245 214.936 25.194 214.627 25.5462C214.325 25.8912 214.174 26.3512 214.174 26.9261C214.174 27.7239 214.469 28.3276 215.058 28.7373C215.647 29.1398 216.398 29.341 217.311 29.341ZM236.805 15.0027V17.5901H227.76V15.0027H236.805ZM230.186 11.0354H233.409V26.6997C233.409 27.325 233.503 27.7958 233.69 28.112C233.876 28.4211 234.117 28.6331 234.412 28.7481C234.714 28.8559 235.041 28.9098 235.393 28.9098C235.652 28.9098 235.878 28.8918 236.072 28.8559C236.266 28.8199 236.417 28.7912 236.525 28.7696L237.107 31.4325C236.92 31.5043 236.654 31.5762 236.309 31.6481C235.964 31.7271 235.533 31.7703 235.016 31.7774C234.167 31.7918 233.377 31.6409 232.644 31.3247C231.911 31.0084 231.318 30.5197 230.865 29.8585C230.412 29.1973 230.186 28.3672 230.186 27.3681V11.0354ZM248.252 15.0027V17.5901H238.894V15.0027H248.252ZM241.46 31.5618V13.0838C241.46 12.0488 241.686 11.1899 242.139 10.5072C242.592 9.81721 243.192 9.30333 243.939 8.96554C244.687 8.62056 245.499 8.44806 246.376 8.44806C247.023 8.44806 247.576 8.50197 248.036 8.60978C248.496 8.71039 248.837 8.80383 249.06 8.89007L248.305 11.499C248.155 11.4559 247.96 11.4056 247.723 11.3481C247.486 11.2834 247.199 11.251 246.861 11.251C246.077 11.251 245.517 11.4451 245.179 11.8332C244.848 12.2213 244.683 12.7819 244.683 13.515V31.5618H241.46ZM257.9 31.896C256.348 31.896 254.993 31.5403 253.836 30.8287C252.679 30.1172 251.78 29.1218 251.141 27.8425C250.501 26.5632 250.181 25.0683 250.181 23.3577C250.181 21.64 250.501 20.1379 251.141 18.8514C251.78 17.5649 252.679 16.5659 253.836 15.8544C254.993 15.1429 256.348 14.7871 257.9 14.7871C259.453 14.7871 260.807 15.1429 261.965 15.8544C263.122 16.5659 264.02 17.5649 264.66 18.8514C265.299 20.1379 265.619 21.64 265.619 23.3577C265.619 25.0683 265.299 26.5632 264.66 27.8425C264.02 29.1218 263.122 30.1172 261.965 30.8287C260.807 31.5403 259.453 31.896 257.9 31.896ZM257.911 29.1901C258.917 29.1901 259.751 28.9242 260.412 28.3923C261.073 27.8605 261.562 27.1525 261.878 26.2685C262.202 25.3845 262.363 24.4106 262.363 23.347C262.363 22.2904 262.202 21.3202 261.878 20.4362C261.562 19.545 261.073 18.8299 260.412 18.2908C259.751 17.7518 258.917 17.4823 257.911 17.4823C256.898 17.4823 256.057 17.7518 255.388 18.2908C254.727 18.8299 254.235 19.545 253.911 20.4362C253.595 21.3202 253.437 22.2904 253.437 23.347C253.437 24.4106 253.595 25.3845 253.911 26.2685C254.235 27.1525 254.727 27.8605 255.388 28.3923C256.057 28.9242 256.898 29.1901 257.911 29.1901ZM269.217 31.5618V15.0027H272.333V17.6332H272.505C272.807 16.742 273.339 16.0413 274.101 15.531C274.87 15.0135 275.74 14.7548 276.71 14.7548C276.911 14.7548 277.148 14.7619 277.421 14.7763C277.702 14.7907 277.921 14.8087 278.079 14.8302V17.9135C277.95 17.8776 277.72 17.838 277.389 17.7949C277.058 17.7446 276.728 17.7194 276.397 17.7194C275.635 17.7194 274.956 17.8812 274.36 18.2046C273.77 18.5208 273.303 18.9628 272.958 19.5306C272.613 20.0912 272.441 20.7308 272.441 21.4496V31.5618H269.217ZM280.868 31.5618V15.0027H283.963V17.6979H284.167C284.512 16.7851 285.077 16.0736 285.86 15.5633C286.643 15.0458 287.581 14.7871 288.674 14.7871C289.78 14.7871 290.708 15.0458 291.455 15.5633C292.21 16.0808 292.767 16.7923 293.126 17.6979H293.299C293.694 16.8139 294.323 16.1095 295.185 15.5849C296.048 15.053 297.075 14.7871 298.268 14.7871C299.771 14.7871 300.996 15.2579 301.945 16.1994C302.901 17.1409 303.379 18.5603 303.379 20.4577V31.5618H300.155V20.7596C300.155 19.6384 299.85 18.8263 299.239 18.3232C298.628 17.8201 297.898 17.5685 297.05 17.5685C296.001 17.5685 295.185 17.8919 294.603 18.5388C294.021 19.1784 293.73 20.0014 293.73 21.0075V31.5618H290.517V20.5548C290.517 19.6564 290.237 18.9341 289.676 18.3878C289.116 17.8416 288.386 17.5685 287.488 17.5685C286.877 17.5685 286.313 17.7302 285.795 18.0536C285.285 18.3699 284.872 18.8119 284.555 19.3797C284.246 19.9475 284.092 20.6051 284.092 21.3525V31.5618H280.868Z" fill="black"></path></svg>
