<svg xmlns="http://www.w3.org/2000/svg" fill="none" viewBox="0 0 197 44">
    <g clip-path="url(#a)">
        <path fill="#FBFCF5" d="M187.705 44a9.998 9.998 0 0 0 6.465-2.137 7.686 7.686 0 0 0 2.744-4.986c.718-5.336-3.642-7.586-7.392-8.548l-3.743-.912c-2.873-.712-4.31-2.137-4.31-4.274 0-2.906 2.874-4.644 5.747-4.644 3.254 0 5.567 1.902 5.747 4.666h3.175c-.18-4.516-3.778-7.643-8.886-7.643-4.389 0-8.929 2.849-8.929 7.657 0 3.64 2.205 5.955 6.731 7.123l3.699.905c3.535.79 5.359 2.728 5.137 5.442-.331 2.137-2.12 4.459-6.128 4.459a7.063 7.063 0 0 1-4.655-1.674 5.27 5.27 0 0 1-1.832-3.362h-3.239c.208 3.882 3.879 7.928 9.669 7.928Z"></path>
        <path fill="#FBFCF5" d="M62.719 43.587v-28.03h-3.154v4.844l-1.436-1.36a14.6 14.6 0 0 0-7.461-3.688 14.667 14.667 0 0 0-8.277.978 14.523 14.523 0 0 0-6.38 5.321 14.345 14.345 0 0 0-2.387 7.92c0 2.815.83 5.567 2.388 7.92a14.524 14.524 0 0 0 6.379 5.322 14.668 14.668 0 0 0 8.277.977 14.6 14.6 0 0 0 7.46-3.687l1.437-1.36v4.843h3.154Zm-14.554-2.714c-2.255 0-4.46-.663-6.334-1.906a11.324 11.324 0 0 1-4.199-5.074 11.217 11.217 0 0 1-.648-6.532 11.276 11.276 0 0 1 3.122-5.788 11.431 11.431 0 0 1 5.84-3.092 11.49 11.49 0 0 1 6.587.646 11.38 11.38 0 0 1 5.115 4.166 11.237 11.237 0 0 1 1.917 6.283 11.264 11.264 0 0 1-3.343 7.987 11.457 11.457 0 0 1-8.057 3.31Z"></path>
        <path fill="#FBFCF5" d="M109.994 43.587v-28.03h-3.161v4.844l-1.437-1.36a14.599 14.599 0 0 0-7.46-3.688 14.667 14.667 0 0 0-8.278.978 14.523 14.523 0 0 0-6.379 5.321 14.345 14.345 0 0 0-2.387 7.92c0 2.815.83 5.567 2.387 7.92a14.524 14.524 0 0 0 6.38 5.322 14.668 14.668 0 0 0 8.277.977 14.6 14.6 0 0 0 7.46-3.687l1.437-1.36v4.843h3.161ZM95.44 40.873a11.47 11.47 0 0 1-6.336-1.902 11.325 11.325 0 0 1-4.202-5.073 11.217 11.217 0 0 1-.65-6.533 11.276 11.276 0 0 1 3.12-5.79 11.43 11.43 0 0 1 5.838-3.094 11.49 11.49 0 0 1 6.589.645 11.38 11.38 0 0 1 5.116 4.167 11.241 11.241 0 0 1 1.918 6.283 11.274 11.274 0 0 1-3.343 7.982 11.465 11.465 0 0 1-8.05 3.315Z"></path>
        <path fill="#FBFCF5" d="M125.338 19.539v-3.156a10.98 10.98 0 0 0-5.596 2.059l-1.38.997v-3.896h-3.16v28.03h3.16V27.26a7.759 7.759 0 0 1 2.005-5.177 7.881 7.881 0 0 1 4.971-2.544Z"></path>
        <path fill="#FBFCF5" d="M153.181 38.743v4.844h3.153v-28.03h-3.153v4.844l-1.437-1.36a14.602 14.602 0 0 0-7.461-3.688 14.666 14.666 0 0 0-8.277.978 14.527 14.527 0 0 0-6.379 5.321 14.35 14.35 0 0 0-2.387 7.92c0 2.815.83 5.567 2.387 7.92a14.527 14.527 0 0 0 6.379 5.322 14.667 14.667 0 0 0 8.277.977 14.603 14.603 0 0 0 7.461-3.687l1.437-1.36ZM141.78 40.88a11.47 11.47 0 0 1-6.333-1.905 11.326 11.326 0 0 1-4.199-5.073 11.215 11.215 0 0 1-.649-6.532 11.278 11.278 0 0 1 3.12-5.788 11.434 11.434 0 0 1 5.837-3.093 11.49 11.49 0 0 1 6.587.643 11.376 11.376 0 0 1 5.116 4.163 11.235 11.235 0 0 1 1.922 6.28 11.267 11.267 0 0 1-3.336 7.98 11.458 11.458 0 0 1-8.043 3.318l-.022.007Z"></path>
        <path fill="#F93576" d="M163.532 0a1.954 1.954 0 0 0-1.812 1.2 1.94 1.94 0 0 0-.112 1.124c.076.377.263.724.537.996a1.966 1.966 0 0 0 2.137.421 1.936 1.936 0 0 0 .637-3.171 1.971 1.971 0 0 0-1.387-.57Z"></path>
        <path fill="#FBFCF5" d="M165.113 7.778h-3.154v35.816h3.154V7.778Z"></path>
        <path fill="#FBFCF5" d="M173.862 0h-3.154v43.587h3.154V0Z"></path>
        <path fill="#FBFCF5" d="M71.088 7.778h-3.154v25.316a10.877 10.877 0 0 0 2.926 7.401 11.055 11.055 0 0 0 7.21 3.476V40.83a7.924 7.924 0 0 1-4.969-2.556 7.8 7.8 0 0 1-2.013-5.18V18.677h7.018V15.55h-7.018V7.778Z"></path>
        <path fill="#F9AB10" d="M10.883 18.762v-3.24a14.551 14.551 0 0 0-6.949 3.814 14.365 14.365 0 0 0-3.884 6.87H3.32a11.245 11.245 0 0 1 2.847-4.656 11.377 11.377 0 0 1 4.717-2.788Z"></path>
        <path fill="#FBFCF5" d="M25.595 7.778v12.623l-1.437-1.36a14.593 14.593 0 0 0-6.616-3.52v3.241a11.41 11.41 0 0 1 4.932 3.046 11.27 11.27 0 0 1 2.777 5.06 11.206 11.206 0 0 1-.102 5.761 11.278 11.278 0 0 1-2.953 4.962 11.415 11.415 0 0 1-5.036 2.873c-1.901.51-3.903.522-5.81.036a11.42 11.42 0 0 1-5.073-2.81 11.281 11.281 0 0 1-3.016-4.923H0a14.431 14.431 0 0 0 5.114 8.082 14.646 14.646 0 0 0 9.08 3.158 14.548 14.548 0 0 0 9.935-3.896l1.437-1.361v4.844h3.154V7.786l-3.125-.008Z"></path>
    </g>
    <defs>
        <clipPath id="a">
            <rect width="197" height="44" fill="#fff"></rect>
        </clipPath>
    </defs>
</svg>