<svg viewBox="0 0 79.38 20.62" xml:space="preserve" xmlns="http://www.w3.org/2000/svg"  style="color:white;"><g transform="translate(-11.34 -10.95)"><path d="M22.1 16.95h-2.54v14.34h2.61V16.95zm-8.59-.99v.83h-2.17v2.34h2.17v12.15h2.53V15.96c0-1.78.74-2.64 2.26-2.64h1.02v-2.37H18.3c-3.04 0-4.79 1.83-4.79 5.01zm54.88 11.8L65.6 16.79h-2.96l4.05 14.38.03.11h3.34l4.03-14.3.05-.19h-2.96zM31.4 16.51c-1.34 0-2.46.44-3.32 1.3v-1.02h-2.61v14.49h2.61v-9.33c0-1.03.57-2.97 2.74-2.97 1.56 0 2.35.83 2.35 2.47v9.83h2.61V21.3c0-3.09-1.56-4.79-4.38-4.79zm13.04 0c-1.34 0-2.46.44-3.32 1.3v-1.02h-2.61v14.49h2.61v-9.33c0-1.03.57-2.97 2.74-2.97 1.56 0 2.35.83 2.35 2.47v9.83h2.61V21.3c0-3.09-1.56-4.79-4.38-4.79zm12.04 0c-3.69 0-5.57 2.53-5.57 7.53s1.87 7.53 5.57 7.53c3.69 0 5.57-2.53 5.57-7.53s-1.87-7.53-5.57-7.53zm2.91 7.53c0 3.54-.87 5.05-2.91 5.05-2.56 0-2.91-2.55-2.91-5.05s.35-5.05 2.91-5.05c2.04 0 2.91 1.51 2.91 5.05zm25.68 7.08H85h.07c-.02-.23-.12-1.37-.12-2.01v-7.72c0-1.14-.36-4.87-5-4.87-4.04 0-4.83 3.14-4.98 4.1l-.03.17h2.56l.03-.12c.26-1.1 1.08-1.68 2.37-1.68 2.01 0 2.43 1.39 2.43 2.55v.51c-.54-.02-1.11-.03-1.54-.03-2.41 0-4.18.65-5.28 1.94-1.01 1.19-1.09 2.55-1.09 2.93 0 1.73.96 4.67 4.58 4.67 1.37 0 2.5-.45 3.36-1.34.03.42.08.8.09.92l.02.13h2.6zm-2.73-6.89v1.75c0 1.5-1.11 3.11-2.9 3.11-1.52 0-2.35-.76-2.35-2.14 0-1.74 1.37-2.74 3.75-2.74h.38c.31 0 .69 0 1.12.02z" fill="currentColor"></path><circle cx="88.93" cy="29.64" r="1.79" fill="#f042be"></circle></g></svg>
