<svg width="143px" height="30px" xmlns="http://www.w3.org/2000/svg" viewBox="0 0 675 142">
							<g fill="none" transform="translate(-1)">
								<polygon class="c-header__logo-layer-bottom" fill="#00BBFF" points="77.9 109.48 33.22 87.14 .94 103.28 77.9 141.76 154.85 103.28 122.57 87.14"></polygon>
								<polygon class="c-header__logo-layer-middle" fill="#0098FF" points="77.9 77.2 33.22 54.86 .94 71 33.22 87.14 77.9 109.48 122.57 87.14 154.85 71 122.57 54.86"></polygon>
								<polygon class="c-header__logo-layer-top" fill="#0072CE" points="122.57 54.86 154.85 38.72 77.9 .24 .94 38.72 33.22 54.86 77.9 77.2"></polygon>
								<path class="c-header__logo-text" fill="#333333" d="M252.73 84.15a1.25 1.25 0 0 0-1.33-1.33h-9a2.66 2.66 0 0 1-2.65-2.65v-12.6a2.66 2.66 0 0 1 2.65-2.65h25.87a2.66 2.66 0 0 1 2.65 2.65v22.29c0 15.92-13.4 29.06-31.58 29.06s-29.72-13.4-31.58-29.32a174 174 0 0 1 0-37.15c1.86-15.92 13.27-29.32 31.58-29.32s31.58 12.61 31.58 30.25v.13a2.75 2.75 0 0 1-2.65 2.65H255a2.66 2.66 0 0 1-2.65-2.65v-.13c0-5.44-4.64-11.54-13-11.54-8.09 0-12.21 4.78-12.87 10.61a173.82 173.82 0 0 0 0 37.15c.66 5.84 4.78 10.61 12.87 10.61s13.4-4.38 13.4-10.35v-5.71h-.02zm51.08 13.4a1.25 1.25 0 0 0 1.33 1.33h31.44a2.66 2.66 0 0 1 2.65 2.65v13.27a2.66 2.66 0 0 1-2.65 2.65h-48.69a2.66 2.66 0 0 1-2.65-2.65V27.23a2.66 2.66 0 0 1 2.65-2.65h48.16a2.66 2.66 0 0 1 2.65 2.65V40.5a2.66 2.66 0 0 1-2.65 2.65h-30.91a1.25 1.25 0 0 0-1.33 1.33V60.4a1.25 1.25 0 0 0 1.33 1.33H335a2.66 2.66 0 0 1 2.65 2.65v13.27A2.66 2.66 0 0 1 335 80.3h-29.86a1.25 1.25 0 0 0-1.33 1.33v15.92zm110.92-45.11a173.82 173.82 0 0 1 0 37.15c-1.86 15.92-13.27 29.32-31.58 29.32s-29.72-13.4-31.58-29.32a174 174 0 0 1 0-37.15c1.86-15.92 13.27-29.32 31.58-29.32s29.73 13.4 31.58 29.32zM396 89.59a174 174 0 0 0 0-37.15c-.66-5.84-4.78-10.61-12.87-10.61s-12.21 4.78-12.87 10.61a173.82 173.82 0 0 0 0 37.15c.66 5.84 4.78 10.61 12.87 10.61s12.23-4.77 12.87-10.61zm60.92-65.01c17.51 0 27.6 12.07 29.59 26.53 1.46 10.61 1.46 29.06 0 39.8-2.26 17.11-13.67 26.53-29.59 26.53H433a2.66 2.66 0 0 1-2.65-2.65V27.23a2.66 2.66 0 0 1 2.65-2.65H456.92zm-16.72 8.49a1.25 1.25 0 0 0-1.33 1.33v73.24a1.25 1.25 0 0 0 1.33 1.33h16.72c14.33 0 19.64-10.35 20.7-18a166.4 166.4 0 0 0 0-39.8c-1.46-9.68-8.09-18-20.7-18h-16.71l-.01-.1zM541 93a2.55 2.55 0 0 0-2.52-1.86h-27.29a2.55 2.55 0 0 0-2.52 1.86l-6.5 22.42a2.55 2.55 0 0 1-2.52 2h-3.32c-2.12 0-3.05-1.46-2.65-2.65L519 26.57a2.56 2.56 0 0 1 2.52-2h6.63c1.2-.01 2.26.82 2.52 2L556 114.8c.27 1.19-.53 2.65-2.65 2.65h-3.32a2.55 2.55 0 0 1-2.52-2L541 93zm-3.45-11.54l-12.03-45.07c-.13-.53-.26-.8-.53-.8h-.27c-.26 0-.4.27-.53.8L512.12 81.5a1 1 0 0 0 1.06 1.46h23.35a1 1 0 0 0 1.06-1.46l-.04-.04zm51.52-47.06v80.4a2.66 2.66 0 0 1-2.65 2.65h-3.32a2.66 2.66 0 0 1-2.65-2.65V34.4a1.25 1.25 0 0 0-1.33-1.33h-19.63a2.66 2.66 0 0 1-2.65-2.65v-3.19a2.66 2.66 0 0 1 2.65-2.65h50.41a2.66 2.66 0 0 1 2.65 2.65v3.18a2.66 2.66 0 0 1-2.65 2.65h-19.5a1.25 1.25 0 0 0-1.33 1.34zM660.72 93a2.55 2.55 0 0 0-2.52-1.86h-27.33a2.55 2.55 0 0 0-2.52 1.86l-6.5 22.42a2.56 2.56 0 0 1-2.52 2H616c-2.12 0-3.05-1.46-2.65-2.65l25.35-88.2a2.56 2.56 0 0 1 2.52-2h6.63c1.2-.01 2.26.82 2.52 2l25.34 88.23c.26 1.19-.53 2.65-2.65 2.65h-3.32a2.55 2.55 0 0 1-2.52-2L660.72 93zm-3.45-11.54L645.2 36.39c-.13-.53-.27-.8-.53-.8h-.27c-.27 0-.4.27-.53.8L631.8 81.5a1 1 0 0 0 1.06 1.46h23.35a1 1 0 0 0 1.06-1.46v-.04z"></path>
							</g>
						</svg>