<svg xmlns:inkscape="http://www.inkscape.org/namespaces/inkscape" xmlns:sodipodi="http://sodipodi.sourceforge.net/DTD/sodipodi-0.dtd" xmlns="http://www.w3.org/2000/svg" xmlns:svg="http://www.w3.org/2000/svg" width="39.09" height="82.52346" viewBox="0 0 39.09 82.52346" fill="none" version="1.1" id="svg8" sodipodi:docname="logo_dark_text.svg" inkscape:version="1.1.2 (0a00cf5339, 2022-02-04)">
  <defs id="defs12"/>
  <sodipodi:namedview id="namedview10" pagecolor="#ffffff" bordercolor="#666666" borderopacity="1.0" inkscape:pageshadow="2" inkscape:pageopacity="0.0" inkscape:pagecheckerboard="0" showgrid="false" inkscape:zoom="4.0024272" inkscape:cx="205.37538" inkscape:cy="39.226198" inkscape:window-width="3840" inkscape:window-height="2059" inkscape:window-x="0" inkscape:window-y="0" inkscape:window-maximized="1" inkscape:current-layer="svg8"/>
  <path d="m 14.932762,56.04016 h 9.2217 v 21.8724 c 0,2.5465 -2.0643,4.6109 -4.6108,4.6109 v 0 c -2.5465,0 -4.6109,-2.0644 -4.6109,-4.6109 z" fill="#f7d186" id="path2"/>
  <path fill-rule="evenodd" clip-rule="evenodd" d="m 24.154562,1.08541 c 0,5.05665 -4.0993,9.15595 -9.156,9.15595 -1.001,0 -1.9646,-0.1607 -2.8662,-0.4576 0.0028,0.0932 0.0042,0.1867 0.0042,0.2805 0,5.0567 -4.09925,9.156 -9.15595,9.156 -1.04274,0 -2.04478,-0.1743 -2.978547,-0.4954 C 6.9e-4,18.82036 0,18.91606 0,19.01186 v 36.3371 c 0,3.627 2.940292,6.5673 6.567312,6.5673 h 25.95275 c 3.627,0 6.5673,-2.9403 6.5673,-6.5673 v -36.3371 c 0,-9.2281 -6.3959,-16.96239 -14.9965,-19.01186 0.042,0.35595 0.0637,0.71815 0.0637,1.08541 z m -12.1604,24.35435 c -2.2074,0 -4.04689,2.4282 -4.04689,5.5185 0,3.0903 1.83949,5.5185 4.04689,5.5185 2.2073,0 4.0469,-2.4282 4.0469,-5.5185 0,-3.0903 -1.8396,-5.5185 -4.0469,-5.5185 z m 15.0989,-2e-4 c -2.2073,0 -4.0468,2.5017 -4.0468,5.5185 0,3.0167 1.8395,5.5185 4.0468,5.5185 2.2074,0 4.0469,-2.5018 4.0469,-5.5185 0,-3.0904 -1.8395,-5.5185 -4.0469,-5.5185 z" fill="#1347ff" id="path4"/></svg>