<svg xmlns="http://www.w3.org/2000/svg" width="1em" viewBox="0 0 158.664 37.316" color="#1111"><g data-name="Pipeops 1 White"><g data-name="Group 7"><path data-name="Path 9" d="M27.607 34.536a17.957 17.957 0 01-12.151 2.6 14.623 14.623 0 01-.693-.112c-.046-.009-.1-.018-.149-.032a17.558 17.558 0 01-3.325-.965c-.417-.167-.83-.347-1.237-.547a.24.24 0 01-.042-.021 5.05 5.05 0 01-.233-.116s-.007 0-.01-.007 0 0-.007 0a10.996 10.996 0 01-.623-.335c-.035-.019-.072-.037-.1-.058-.007 0-.011 0-.011-.007a17.246 17.246 0 01-1.857-1.217.07.07 0 01-.026-.018 1.48 1.48 0 01-.107-.079 17.8 17.8 0 01-3.4-3.406c-.075-.1-.151-.2-.219-.3l-.414-.591a5.33 5.33 0 01-.17-.253 17.716 17.716 0 01-1.752-3.524 17.433 17.433 0 01-1.012-4.511c-.039-.4-.058-.8-.065-1.2A17.686 17.686 0 018.263 4.5a18.011 18.011 0 0116.735-1.315q.458.192.9.412a17.405 17.405 0 012.147 1.249q.621.421 1.208.9c.265.214.524.438.777.67.072.065.142.13.212.2a17.923 17.923 0 012.261 2.576q.274.381.531.78l.2.314q.305.5.572 1.007a18.1 18.1 0 01.93 2.047 17.834 17.834 0 01.719 2.411 17.7 17.7 0 01-7.848 18.785z" fill="#4f21ea"></path><g data-name="Group 3" opacity="0.25"><path data-name="Path 10" d="M4.374 24.283a3.046 3.046 0 01-.062.39 3.4 3.4 0 01-1.878 2.274c-.185-.4-.352-.814-.5-1.228a17.455 17.455 0 01-1.012-4.511c-.038-.4-.058-.8-.065-1.2a4.821 4.821 0 013.458 3.362 3.013 3.013 0 01.059.913z"></path><path data-name="Path 11" d="M8.981 27.535a3.44 3.44 0 01-1.313 2.025 3.5 3.5 0 01-.752.434 3.675 3.675 0 01-2.247.2 3.761 3.761 0 01-.393-.109l-.414-.592a4.889 4.889 0 01-.171-.253 17.558 17.558 0 01-1.252-2.295c-.185-.4-.352-.814-.5-1.228a3.5 3.5 0 012.38-2.346 3.713 3.713 0 014.357 1.84 3.443 3.443 0 01.305 2.324z"></path><path data-name="Path 12" d="M4.272 30.087c.068.1.144.2.219.3a17.8 17.8 0 003.4 3.406c.034.027.068.051.106.079a.166.166 0 00.007.041.066.066 0 00.021-.024 2.783 2.783 0 00.575-.872 3.11 3.11 0 00.157-.492 2.959 2.959 0 00.048-.947 2.62 2.62 0 00-.048-.287 2.993 2.993 0 00-1.084-1.73.272.272 0 00-.034-.031 3.173 3.173 0 00-1.238-.575l-.055-.01a2.722 2.722 0 00-.188-.034 3.093 3.093 0 00-2.295.585z"></path><path data-name="Path 13" d="M15.469 37.163a17.608 17.608 0 01-3.324-.964 18.102 18.102 0 01-1.512-.684s-.007 0-.01-.007 0 0-.007 0a11.27 11.27 0 01-.622-.335 3.172 3.172 0 011.809-.711 3.135 3.135 0 011.734.41 4.6 4.6 0 011.932 2.291z"></path><path data-name="Path 14" d="M13.899 33.216a3.1 3.1 0 01-.362 1.655 2.976 2.976 0 01-1.392 1.327 18.102 18.102 0 01-1.512-.684s-.007 0-.01-.007 0 0-.007 0a11.27 11.27 0 01-.622-.335c-.034-.021-.072-.037-.1-.058-.007 0-.01 0-.01-.007a16.863 16.863 0 01-1.857-1.218.064.064 0 01-.021.024.169.169 0 01-.007-.041 3.08 3.08 0 01-.031-.26v-.048a3.128 3.128 0 01.26-1.454 3.118 3.118 0 01.534-.817.721.721 0 01.048-.055 2.913 2.913 0 011.946-.906 2.778 2.778 0 01.7.045 3.047 3.047 0 012.443 2.839z"></path></g><path data-name="Path 15" d="M14.481 21.816s-5.253 4.672-8.405 4.378 3.975 9.321 3.975 9.321.542-7.923 7.309-11.255-2.879-2.444-2.879-2.444z" opacity="0.25"></path><path data-name="Path 16" d="M14.139 21.132a24.221 24.221 0 01-6.272 4.016c-.016-.035-.031-.071-.049-.106a3.713 3.713 0 00-4.357-1.84A4.821 4.821 0 00.003 19.84c.007.4.027.8.065 1.2a17.438 17.438 0 001.012 4.511c.147.414.315.824.5 1.228a18.695 18.695 0 001.251 2.295c.055.086.109.168.171.253l.414.592c.068.1.144.2.219.3a17.8 17.8 0 003.4 3.406c.034.027.068.051.106.079a.166.166 0 00.007.041.066.066 0 00.021-.024 16.853 16.853 0 001.857 1.218c0 .007 0 .007.01.007.031.021.068.038.1.058.205.12.41.229.622.335h.007c.007 0 .007.007.01.007.5.253 1 .479 1.512.684a17.608 17.608 0 003.324.964 4.6 4.6 0 00-1.932-2.292 3.1 3.1 0 00.363-1.655 3.058 3.058 0 00-2.146-2.765 12.837 12.837 0 016.12-6.7c6.768-3.338-2.877-2.45-2.877-2.45z" fill="#e6e6e6"></path><g data-name="Group 4" opacity="0.25"><path data-name="Path 17" d="M39.447 6.338a11.433 11.433 0 01-3.436 7.931 2.291 2.291 0 01-.363.27l-.428.26c.089.317.168.635.24.954l-8.848 5.377-.877.531-4.16 2.527-.61.372-1.522.924a2.423 2.423 0 01-3.083-.475l-.11-.128-.161-.182-.346-.395-1.787-2.043-.279-.318a2.486 2.486 0 01-.2-.258 2.423 2.423 0 01.135-2.86l1.566-1.942.377-.467 3.33-4.12.577-.714 6.44-7.982.125-.154a2.306 2.306 0 01.316-.326c3.1-2.561 8.729-3.455 11.749-.947a6.394 6.394 0 011.355 4.165z"></path><path data-name="Path 18" d="M8.648 19.169l1.6-6.108a.756.756 0 01.729-.571l11.179-.272a1.009 1.009 0 01.914 1.44l-2.263 3.853a.777.777 0 01-.847.353l-6.049-1.239a.79.79 0 00-.759.233l-2.953 3.3c-.597.673-1.788-.085-1.551-.989z"></path><path data-name="Path 19" d="M18.445 30.363l6.267-.78a.756.756 0 00.663-.647l1.751-11.044a1.009 1.009 0 00-1.306-1.1l-4.118 1.732a.778.778 0 00-.462.792l.426 6.16a.79.79 0 01-.331.721l-3.663 2.489c-.748.511-.155 1.796.773 1.677z"></path><g data-name="Ellipse 1" transform="translate(26.94 6.385)" stroke="#f7931e" stroke-width="5"><circle cx="3.568" cy="3.568" r="3.568" stroke="none"></circle><circle cx="3.568" cy="3.568" r="1.068" fill="none"></circle></g></g><g data-name="Group 6"><path data-name="Path 20" d="M39.448 6.338a11.433 11.433 0 01-3.436 7.931 2.291 2.291 0 01-.363.27l-.428.26-8.417 5.114-.875.533-4.427 2.687-.61.372-2.133 1.3a2.421 2.421 0 01-2.445.042 1.9 1.9 0 01-.226-.144 2.338 2.338 0 01-.4-.359.1.1 0 01-.012-.014l-1.771-2.022-.491-.563-.421-.481a2.424 2.424 0 01-.061-3.118l1.191-1.475.375-.466 3.125-3.873.577-.716L25 3.192l.344-.426a2.221 2.221 0 01.316-.326c3.317-2.743 9.541-3.573 12.351-.361.028.032.056.065.082.1a6.394 6.394 0 011.355 4.159z" fill="#fff"></path><path data-name="Path 21" d="M7.964 18.485l1.6-6.108a.756.756 0 01.729-.571l11.179-.272a1.01 1.01 0 01.914 1.44l-2.263 3.852a.778.778 0 01-.847.353l-6.049-1.239a.79.79 0 00-.759.233l-2.953 3.3c-.597.674-1.788-.084-1.551-.988z" fill="#fff"></path><path data-name="Path 22" d="M17.761 29.679l6.267-.78a.756.756 0 00.663-.647l1.751-11.045a1.009 1.009 0 00-1.306-1.1l-4.118 1.732a.777.777 0 00-.462.792l.426 6.16a.79.79 0 01-.331.721l-3.663 2.49c-.748.511-.154 1.796.773 1.677z" fill="#fff"></path><g data-name="Group 5" transform="translate(26.256 5.701)"><circle data-name="Ellipse 2" cx="3.568" cy="3.568" r="3.568" fill="#4f21ea" opacity="0.48"></circle><path data-name="Path 23" d="M6.409 1.411a3.064 3.064 0 00-.291-.339 3.7 3.7 0 00-.289-.265A3.582 3.582 0 003.005.044a3.358 3.358 0 00-.368.079c-.1.028-.2.06-.3.1a3.568 3.568 0 001.235 6.915 3.582 3.582 0 00.622-.054 3.568 3.568 0 00.61-.165c.1-.037.2-.079.295-.125a3.571 3.571 0 001.312-5.381zm-.156 2.336A2.69 2.69 0 11.99 2.805 2.683 2.683 0 012.823.985a2.7 2.7 0 01.744-.1 2.672 2.672 0 01.428.035 2.7 2.7 0 011.6.882 2.67 2.67 0 01.663 1.694 2.541 2.541 0 01-.005.251z"></path></g></g></g><g data-name="Group 8"><path data-name="Path 24" d="M65.345 11.685a6.744 6.744 0 00-2.057-1.357 6.438 6.438 0 00-2.539-.512h-9.527V29.48h3.438v-6.84h6.081a6.445 6.445 0 002.542-.512 6.732 6.732 0 002.06-1.356 6.366 6.366 0 001.406-2.035 6.336 6.336 0 000-5.018 6.365 6.365 0 00-1.404-2.034zm-10.686 1.526h6.018a2.921 2.921 0 011.189.241 3.29 3.29 0 011.011.673 2.982 2.982 0 01.655.957 2.817 2.817 0 01.232 1.145 2.762 2.762 0 01-.236 1.152 3.04 3.04 0 01-.674.963 3.269 3.269 0 01-1.016.665 3.038 3.038 0 01-1.2.237h-5.976z" fill="#fff"></path><path data-name="Path 25" d="M70.725 6.715a2.163 2.163 0 00-1.561.643 2.188 2.188 0 00-.642 1.581 2.203 2.203 0 104.406 0 2.191 2.191 0 00-.644-1.583 2.163 2.163 0 00-1.559-.641z" fill="#4f21ea"></path><path data-name="Path 26" d="M68.395 16.684h.989v12.775h3.438V13.331h-4.427z" fill="#fff"></path><path data-name="Path 27" d="M88.486 15.445a8.474 8.474 0 00-2.662-1.789 8.277 8.277 0 00-3.283-.661 9.47 9.47 0 00-1.87.2 7.645 7.645 0 00-2.028.733 7.774 7.774 0 00-1.022.647v-1.239h-3.417v20.779h3.417v-5.959a8.261 8.261 0 00.823.537 7.959 7.959 0 002.073.828 8.11 8.11 0 005.334-.454 8.633 8.633 0 004.431-4.526 8.215 8.215 0 00.661-3.245 7.994 7.994 0 00-.666-3.225 8.53 8.53 0 00-1.791-2.626zm-.981 5.939a4.744 4.744 0 01-.383 1.884 5.275 5.275 0 01-2.676 2.768 4.712 4.712 0 01-3.829 0 5.114 5.114 0 01-1.584-1.126 5.441 5.441 0 01-1.071-1.642 4.819 4.819 0 010-3.768 5.445 5.445 0 011.071-1.641 5.19 5.19 0 011.584-1.126 4.712 4.712 0 013.828 0 5.275 5.275 0 012.676 2.768 4.745 4.745 0 01.384 1.883z" fill="#fff"></path><path data-name="Path 28" d="M105.918 15.483a8.57 8.57 0 00-2.644-1.812 8.09 8.09 0 00-3.285-.677 8.276 8.276 0 00-3.283.661 8.384 8.384 0 00-4.455 4.449 8.247 8.247 0 00-.662 3.28 8.093 8.093 0 00.675 3.267 8.513 8.513 0 004.448 4.448 8.149 8.149 0 003.288.675 8.261 8.261 0 002.851-.507 8.594 8.594 0 002.5-1.433l1.195-.983-2.409-2.407-.981.794a5.855 5.855 0 01-1.528.9 4.343 4.343 0 01-1.63.3 4.55 4.55 0 01-1.867-.376 5.056 5.056 0 01-1.55-1.054 5.327 5.327 0 01-1.083-1.577q-.093-.2-.168-.416h13.037v-1.656a8.067 8.067 0 00-.664-3.232 8.623 8.623 0 00-1.785-2.644zm-5.929.844a4.5 4.5 0 011.842.375 5.152 5.152 0 011.554 1.046 5.213 5.213 0 011.075 1.547q.089.193.161.393h-9.292q.066-.176.146-.351a5.246 5.246 0 011.086-1.557 5.341 5.341 0 011.573-1.071 4.445 4.445 0 011.855-.383z" fill="#fff"></path><path data-name="Path 29" d="M123.338 15.445a8.508 8.508 0 00-2.647-1.789 8.457 8.457 0 00-6.559 0 8.383 8.383 0 00-4.455 4.449 8.454 8.454 0 000 6.56 8.384 8.384 0 004.456 4.449 8.458 8.458 0 006.559 0 8.41 8.41 0 004.442-4.448 8.452 8.452 0 000-6.56 8.459 8.459 0 00-1.796-2.661zm-5.923 11a4.481 4.481 0 01-1.9-.4 5.075 5.075 0 01-1.588-1.117 5.5 5.5 0 01-1.088-1.645 4.7 4.7 0 01-.389-1.9 4.766 4.766 0 01.391-1.911 5.334 5.334 0 011.081-1.635 5.214 5.214 0 011.6-1.11 4.512 4.512 0 011.892-.4 4.441 4.441 0 011.876.4 5.253 5.253 0 011.594 1.112 5.337 5.337 0 011.081 1.635 4.769 4.769 0 01.391 1.911 4.692 4.692 0 01-.389 1.9 5.512 5.512 0 01-1.089 1.646 5.149 5.149 0 01-1.588 1.116 4.434 4.434 0 01-1.878.395z" fill="#fff"></path><path data-name="Path 30" d="M142.429 18.075a8.439 8.439 0 00-4.453-4.419 8.278 8.278 0 00-3.283-.661 9.471 9.471 0 00-1.87.2 7.643 7.643 0 00-2.028.733 7.775 7.775 0 00-1.022.647v-1.239h-3.417v20.779h3.417v-5.959a8.232 8.232 0 00.823.537 7.96 7.96 0 002.073.828 8.11 8.11 0 005.334-.454 8.633 8.633 0 004.432-4.526 8.215 8.215 0 00.661-3.245 8 8 0 00-.667-3.221zm-2.772 3.309a4.745 4.745 0 01-.384 1.884 5.274 5.274 0 01-2.676 2.768 4.712 4.712 0 01-3.829 0 5.116 5.116 0 01-1.585-1.126 5.437 5.437 0 01-1.071-1.642 4.816 4.816 0 010-3.768 5.447 5.447 0 011.07-1.641 5.189 5.189 0 011.585-1.126 4.712 4.712 0 013.828 0 5.274 5.274 0 012.676 2.768 4.747 4.747 0 01.386 1.883z" fill="#fff"></path><path data-name="Path 31" d="M156.472 21.513a7.382 7.382 0 00-1.624-.834 15.652 15.652 0 00-1.642-.509l-2.988-.7-.108-.021c-.146-.022-.3-.051-.444-.085s-.314-.077-.477-.123l-1.075-.345a4.629 4.629 0 01-.615-.27 1.857 1.857 0 01-.41-.288 1.194 1.194 0 01-.241-.309.343.343 0 01-.029-.16.086.086 0 01.01-.047 1.714 1.714 0 01.153-.259 2.3 2.3 0 01.6-.465 5.545 5.545 0 011.022-.436 7.079 7.079 0 011.122-.255 7.324 7.324 0 011-.081 7.934 7.934 0 011.078.081 9.542 9.542 0 011.2.248 8.164 8.164 0 011.172.422 6.077 6.077 0 011.015.572l.945.665 2.524-2.419-1.348-.988a8.465 8.465 0 00-1.627-.934 11.232 11.232 0 00-1.673-.577 12.332 12.332 0 00-1.677-.309 14.433 14.433 0 00-1.6-.093 12.1 12.1 0 00-2.241.225 9.382 9.382 0 00-2.278.733 5.944 5.944 0 00-1.908 1.409 3.69 3.69 0 00-.932 2.489 3.785 3.785 0 00.559 2.035 4.642 4.642 0 001.319 1.371 7.368 7.368 0 001.625.835 15.012 15.012 0 001.673.511l3.467.782c.327.075.707.182 1.132.317a5.424 5.424 0 011.036.451 2.406 2.406 0 01.656.531.349.349 0 01.087.259.174.174 0 01-.016.081 1.26 1.26 0 01-.138.236 2.107 2.107 0 01-.65.476 6 6 0 01-1.115.418 7.975 7.975 0 01-1.2.224 10.184 10.184 0 01-1.048.066 9.084 9.084 0 01-1.1-.073 7.8 7.8 0 01-1.174-.241 9.371 9.371 0 01-1.215-.44 6.289 6.289 0 01-1.082-.611l-.965-.677-2.516 2.516 1.4.954a10.114 10.114 0 003.39 1.511 14.29 14.29 0 003.24.395 15.038 15.038 0 002.131-.172 9.735 9.735 0 002.377-.653 6.2 6.2 0 002.064-1.389 3.737 3.737 0 001.05-2.661 3.685 3.685 0 00-.587-2.052 4.855 4.855 0 00-1.304-1.337z" fill="#fff"></path></g></g></svg>