<svg xmlns="http://www.w3.org/2000/svg" width="279" height="60" viewBox="0 0 279 60"><path fill="#E13A3E" d="M46.363 38.898l.657.427c-1.2 2.513-1.315 3.364-1.315 5.646 0 3.25 0 5.375.116 6.534.117 1.702.427 3.906 3.327 3.906 3.634 0 3.866-5.22 3.866-7.502 0-4.484.117-9.28-5.837-16.086-7.928-8.39-8.817-15.583-8.817-19.41C38.357 6.766 39.905 0 49.146 0c9.164 0 11.02 6.843 11.02 13.803v2.358L52.01 20.34l-.543-.425c1.197-2.515 1.43-3.442 1.43-6.535 0-2.204 0-7.19-1.315-8.583-.426-.426-1.005-.89-2.204-.89-3.326 0-3.403 5.297-3.403 7.347 0 9.203 1.663 11.097 6.613 16.82 4.95 5.8 8.042 9.783 8.042 18.174 0 4.485-.89 13.03-11.563 13.03-9.357 0-10.71-6.92-10.71-11.52v-2.592l8.006-6.266zM73.933 57.42c.772.348 1.314.657 2.63.735v.657h-13.03v-.657c1.197-.078 1.777-.232 2.745-.735V1.817c-.89-.426-1.432-.658-2.746-.812v-.58h14.113c8.584 0 10.363 6.187 10.363 10.594v10.015c0 4.794-2.436 10.014-12.334 10.014h-1.78v26.37h.04zm6.612-46.98c0-6.46-1.972-6.46-6.612-6.46v23.317c2.63 0 6.612 0 6.612-4.1V10.44zM102.584 57.42c.774.348 1.315.657 2.63.735v.657h-13.03v-.657c1.198-.078 1.778-.232 2.745-.735V1.817c-.89-.426-1.432-.658-2.747-.812v-.58h14.114c8.584 0 10.362 6.187 10.362 10.594v10.015c0 4.794-2.437 10.014-12.335 10.014h-1.78v26.37h.04zm6.613-46.98c0-6.46-1.972-6.46-6.613-6.46v23.317c2.63 0 6.613 0 6.613-4.1V10.44z"></path><path fill="#FFF" d="M138.622 26.293c0 3.248-2.357 6.38-6.495 6.38-2.01 0-4.293-.813-4.293-1.625 0-.734.348-2.36.62-3.673.154-.657.232-1.082.657-1.082.35 0 .466.31.466 1.004v1.276c0 2.05.77 3.403 2.513 3.403 2.318 0 3.67-1.74 3.67-3.943 0-3.674-4.793-5.878-4.793-9.938 0-3.17 2.784-5.22 5.685-5.22 2.01 0 4.33.695 4.33 1.237 0 .54-.193.928-.85 3.828-.117.464-.233.58-.503.58-.31 0-.465-.116-.465-1.276 0-2.977-.812-3.71-2.436-3.71-1.432 0-3.132 1.12-3.132 3.207-.08 2.67 5.024 6.266 5.024 9.553zM152.155 18.173c2.593 0 4.332 2.166 4.332 5.685 0 3.402-3.016 8.816-7.966 8.816-2.59 0-4.33-2.166-4.33-5.684-.038-3.404 2.978-8.817 7.965-8.817zM148.83 31.9c2.863 0 5.028-6.844 5.028-10.13 0-2.05-.773-2.823-2.088-2.823-2.86 0-5.027 6.844-5.027 10.13 0 2.048.774 2.824 2.088 2.824zM174.74 18.366c.192 0 .306.078.306.194 0 .58-3.4 9.744-3.4 11.832 0 .193.076.35.27.35.426 0 1.16-1.007 1.7-1.82 1.2-1.855 1.045-2.127 1.392-2.127.194 0 .31.155.31.348 0 .658-2.666 5.53-4.987 5.53-.85 0-1.236-.62-1.236-1.198 0-1.547.734-3.674 1.083-5.105l-.077-.077c-1.16 1.933-4.292 6.342-6.885 6.342-.85 0-1.392-.658-1.392-1.51 0-2.164 3.48-10.207 3.48-10.748 0-.116-.04-.348-.23-.348-.35 0-.852.463-1.74 1.544-.734.967-1.045 1.74-1.276 1.74-.193 0-.35-.077-.35-.348 0-.58 2.476-4.872 5.26-4.872.735 0 1.082.348 1.082 1.044 0 1.856-3.48 9.938-3.48 10.943 0 .426.193.62.465.62 1.122 0 4.872-4.14 6.535-9.087.965-2.823.733-3.326 1.545-3.326h1.626v.08zM181.66 19.68l.232-1.004h2.204l1.274-3.983c.117-.31.233-.387 1.547-.387.696 0 .852.078.852.232 0 .194-.428 1.314-1.2 4.138h2.476l-.233 1.005h-2.59l-2.09 7c-.617 2.05-.966 3.288-.966 3.52 0 .386.115.617.467.617.463 0 1.158-.888 1.74-1.816 1.004-1.585.888-1.894 1.273-1.894.115 0 .193.078.193.348 0 .464-2.357 5.26-4.988 5.26-.85 0-1.236-.465-1.236-1.394 0-.928.23-2.048 1.276-5.298l2.01-6.302h-2.243v-.04zM196.2 25.326l.077.077c1.16-2.436 3.943-7.19 6.303-7.19 1.545 0 2.396 1.623 2.396 3.943 0 5.22-4.02 10.557-6.96 10.557-.736 0-1.198-.658-1.198-1.275 0-1.122.425-1.817 1.12-1.817.618 0 .734.464.774.93.077.46.115.85.54.85 1.123 0 2.94-7.076 2.94-10.286 0-.85-.232-1.276-.657-1.276-1.663 0-4.718 5.955-5.917 8.622-1.587 3.558-1.122 3.71-2.05 3.71h-1.083c-.31 0-.347-.152-.347-.385 0-.154.075-.58.23-1.122L197.01 14.5c.077-.347.193-.734.193-1.005 0-.348-.155-.464-.465-.503l-.734-.077c-.155 0-.35-.077-.35-.348 0-.23.08-.425.85-.425.468 0 1.394-.116 2.207-.426.734-.27 1.237-.772 1.546-.772.156 0 .27.116.27.27 0 .078-.152.58-.58 1.934L196.2 25.326zM222.222 18.52c.27 0 .387.08.387.35 0 .85-2.94 9.01-2.94 11.33 0 .657.31.966.89.966 2.514 0 5.338-6.458 5.338-8.47 0-1.236-.776-1.816-.776-2.898 0-.89.58-1.664 1.276-1.664.618 0 1.198.348 1.198 1.74 0 2.282-3.558 12.762-8.236 12.762-1.12 0-1.933-.734-1.933-2.204 0-1.2.388-2.36.62-3.326l-.08-.078c-.887 1.663-2.975 5.57-5.45 5.57-1.277 0-1.972-.853-2.01-2.32-.08-2.94 3.054-9.165 3.054-10.093 0-.193-.037-.425-.27-.425-.425 0-1.083.773-2.01 2.088-.696.966-.813 1.47-1.044 1.47-.193 0-.35-.078-.35-.35 0-.462 2.476-4.87 4.873-4.87.655 0 1.235.502 1.235 1.352 0 1.123-.888 3.674-1.74 5.955-.732 2.01-1.506 3.83-1.506 4.796 0 .58.268.927.848.927 1.123 0 4.1-3.402 5.802-9.28.89-3.13.852-3.364 1.508-3.364h1.314v.038zM239.237 25.713c-1.548.464-3.674.696-4.294.734-.193.04-.193.464-.27 1.625 0 1.933.735 2.938 1.894 2.938 1.316 0 2.515-1.005 3.404-2.204 1.122-1.43 1.006-1.78 1.315-1.78.193 0 .347.08.347.31 0 .58-2.28 5.337-6.224 5.337-2.36.04-3.792-2.05-3.792-4.6 0-4.95 4.063-9.94 8.354-9.94 2.166 0 3.287 1.315 3.287 3.018 0 2.436-1.778 3.868-4.02 4.563zm.307-6.766c-.773 0-1.585.348-2.513 1.817-1.042 1.663-1.738 3.442-2.047 4.872 4.6-.464 5.684-3.13 5.684-5.413 0-.812-.503-1.276-1.123-1.276zM256.095 22.195c-.852 0-.93-3.248-2.978-3.248-.89 0-1.625.657-1.625 1.856 0 2.28 3.83 4.563 3.83 7.308 0 2.36-2.012 4.564-4.796 4.564-2.088 0-3.713-.772-3.713-1.817 0-.697.117-1.625.193-2.01.193-.852.35-1.045.735-1.045.466 0 .504.348.89 1.547.35 1.12 1.122 2.512 2.398 2.512.965 0 1.816-.735 1.816-2.204 0-2.475-3.673-4.138-3.673-7 0-2.744 2.244-4.485 4.64-4.485 1.703 0 3.326.658 3.326 1.238.042.62-.423 2.785-1.04 2.785zM262.744 19.68l.233-1.004h2.203l1.276-3.983c.116-.31.23-.387 1.548-.387.696 0 .89.078.89.232 0 .194-.427 1.314-1.2 4.138h2.475l-.23 1.005h-2.593l-2.088 7c-.62 2.05-.967 3.288-.967 3.52 0 .386.116.617.463.617.465 0 1.16-.888 1.74-1.816 1.006-1.585.89-1.894 1.275-1.894.118 0 .194.078.194.348 0 .464-2.36 5.26-5.025 5.26-.853 0-1.24-.465-1.24-1.394 0-.928.23-2.048 1.277-5.298l2.012-6.302h-2.246v-.04zM127.216 49.763c-1.083 3.984-1.624 5.916-1.624 6.884 0 .35.193.85.967.928.54.077.966.155.966.465 0 .31-.116.425-.542.425-1.083 0-2.01-.116-2.938-.116-1.083 0-2.204.115-2.938.115-.232 0-.657-.076-.657-.425 0-.232.078-.348.93-.465.927-.115 1.16-.658 1.546-2.09 3.44-12.875 3.905-13.996 3.905-14.498 0-1.083-1.43-.58-1.43-1.2 0-.23.154-.346.386-.346.696 0 1.74.115 2.707.115 1.392 0 2.59-.114 3.597-.114 3.054 0 4.098 1.39 4.098 4.137 0 3.79-3.132 6.304-7.425 6.187h-1.547zm1.122-.656c3.364 0 4.95-3.247 4.95-6.342 0-2.01-.735-2.63-2.398-2.63-.542 0-.812.04-1.043.078l-2.475 8.932h.967v-.038zM147.323 44.312c2.59 0 4.332 2.165 4.332 5.684 0 3.403-3.018 8.817-7.968 8.817-2.59 0-4.33-2.166-4.33-5.685-.04-3.44 2.978-8.816 7.966-8.816zM144 58.04c2.858 0 5.024-6.846 5.024-10.132 0-2.048-.773-2.823-2.088-2.823-2.86 0-5.026 6.846-5.026 10.133 0 2.047.774 2.822 2.09 2.822zM169.056 44.66c.27 0 .385.077.385.35 0 .85-2.937 9.008-2.937 11.328 0 .658.31.968.887.968 2.516 0 5.337-6.46 5.337-8.47 0-1.237-.77-1.816-.77-2.9 0-.888.577-1.662 1.273-1.662.58 0 1.2.35 1.2 1.74 0 2.28-3.52 12.76-8.236 12.76-1.12 0-1.935-.733-1.935-2.204 0-1.198.386-2.357.617-3.324l-.075-.078c-.892 1.663-2.98 5.57-5.453 5.57-1.277 0-1.973-.853-2.01-2.322-.08-2.938 3.054-9.164 3.054-10.092 0-.194-.04-.426-.27-.426-.428 0-1.086.774-2.014 2.09-.696.965-.812 1.47-1.043 1.47-.193 0-.35-.08-.35-.35 0-.464 2.476-4.872 4.873-4.872.658 0 1.238.502 1.238 1.354 0 1.12-.89 3.673-1.74 5.954-.734 2.01-1.51 3.828-1.51 4.795 0 .578.272.927.853.927 1.122 0 4.1-3.4 5.8-9.278.89-3.135.89-3.366 1.51-3.366h1.315v.036zM186.066 51.814c-1.545.463-3.67.695-4.29.734-.192.038-.192.465-.272 1.624 0 1.933.737 2.94 1.896 2.94 1.314 0 2.513-1.008 3.402-2.206 1.12-1.43 1.005-1.778 1.314-1.778.193 0 .31.077.31.31 0 .58-2.282 5.336-6.186 5.336-2.36.04-3.83-2.05-3.83-4.602 0-4.95 4.062-9.938 8.352-9.938 2.166 0 3.287 1.314 3.287 3.016.04 2.474-1.74 3.867-3.984 4.564zm.35-6.73c-.774 0-1.586.35-2.513 1.818-1.046 1.662-1.74 3.44-2.05 4.872 4.6-.464 5.683-3.132 5.683-5.414-.037-.85-.54-1.276-1.12-1.276zM198.635 51.62c1.548-3.596 3.25-7.308 5.144-7.308.617 0 1.042.426 1.042 1.548 0 1.545-.734 3.015-1.74 3.015-.58 0-.85-.348-.85-.85 0-.35.117-.736.117-1.006 0-.195-.08-.233-.197-.233-.89 0-3.904 7.077-5.22 11.06-.114.347-.114.502-.617.502h-1.47c-.23 0-.35-.04-.35-.156 0-.386 3.25-10.517 3.25-11.677 0-.193-.078-.31-.234-.31-.307 0-.81.735-1.274 1.51-.852 1.352-1.005 1.622-1.122 1.622-.154 0-.27-.078-.27-.35 0-.502 2.128-4.716 4.216-4.716.734 0 1.003.348 1.003 1.044 0 1.314-.77 3.75-1.43 6.225v.077zM223.847 49.763c-1.083 3.984-1.625 5.916-1.625 6.884 0 .35.193.85.967.928.54.077.967.155.967.465 0 .31-.118.425-.543.425-1.083 0-2.01-.116-2.938-.116-1.083 0-2.203.115-2.94.115-.23 0-.655-.076-.655-.425 0-.232.077-.348.93-.465.926-.115 1.16-.658 1.546-2.09 3.44-12.875 3.905-13.996 3.905-14.498 0-1.083-1.43-.58-1.43-1.2 0-.23.154-.346.386-.346.696 0 1.74.115 2.706.115 1.393 0 2.593-.114 3.596-.114 3.056 0 4.1 1.39 4.1 4.137 0 3.79-3.132 6.304-7.424 6.187h-1.547zm1.12-.656c3.365 0 4.95-3.247 4.95-6.342 0-2.01-.735-2.63-2.398-2.63-.542 0-.81.04-1.044.078L224 49.145h.968v-.038zM243.916 44.312c2.588 0 4.33 2.165 4.33 5.684 0 3.403-3.02 8.817-7.966 8.817-2.59 0-4.332-2.166-4.332-5.685 0-3.44 3.016-8.816 7.968-8.816zM240.63 58.04c2.86 0 5.024-6.846 5.024-10.132 0-2.048-.773-2.823-2.088-2.823-2.86 0-5.027 6.846-5.027 10.133 0 2.047.773 2.822 2.09 2.822zM261.12 44.312c2.593 0 4.332 2.165 4.332 5.684 0 3.403-3.016 8.817-7.966 8.817-2.59 0-4.33-2.166-4.33-5.685 0-3.44 3.017-8.816 7.964-8.816zm-3.284 13.728c2.86 0 5.025-6.846 5.025-10.132 0-2.048-.772-2.823-2.087-2.823-2.862 0-5.027 6.846-5.027 10.133 0 2.047.774 2.822 2.09 2.822zM273.03 56.878c.387 0 1.045-.85 1.7-1.894.93-1.47.853-1.818 1.162-1.818.193 0 .27.116.27.27 0 .66-2.552 5.376-4.795 5.376-.812 0-1.314-.542-1.314-1.625 0-2.59 5.027-16.357 5.027-17.902 0-.23.038-.464-.542-.464l-.616-.038c-.427-.038-.505-.077-.505-.348 0-.387.31-.464 1.083-.464.58 0 1.083-.04 1.548-.117 1.353-.23 1.74-.773 2.048-.773.156 0 .27.117.27.27 0 .078-.152.58-.58 1.935-2.127 6.806-5.18 15.583-5.18 17.168.038.27.116.425.424.425z"></path><path fill="#E13A3E" d="M8.083 28.458l9.086-6.61-1.74-1.2-8.662 6.535M20.262 19.604c.58-.464 0-.89 0-.89l-1.2-.812-2.202 1.663 1.817 1.16 1.585-1.12zM20.03 13.726l-3.13-2.088-2.012 1.43 3.79 2.476 1.353-.967c.618-.464 0-.85 0-.85zM11.755 16.355l3.016 1.934 2.36-1.664-3.75-2.513-1.857 1.314c-.695.58.232.928.232.928zM12.992 9.086l-1.47 1.005c-.694.58.233.93.233.93l1.663 1.082 2.01-1.432-2.436-1.584zM11.987 6.418l1.083.695 8.894-6.108-.387-.388C21.113.115 20.224 0 20.224 0h-1.47l-7.036 5.49c-.658.58.27.928.27.928z"></path><path fill="#E13A3E" d="M30.702 9.705L26.14 5.143l-7.656 5.413 4.408 2.784c.967 1.083-.348 1.974-.348 1.974l-1.972 1.506 2.32 1.547c.967 1.083-.348 1.973-.348 1.973l-2.127 1.584 2.63 1.663c.965 1.083-.348 1.972-.348 1.972l-7.193 5.374h4.602c.347-.04 1.468-.657 1.468-.657s8.855-8.854 9.088-8.97c.232-.116.657-1.122.657-1.122v-9.087c-.04-.427-.62-1.393-.62-1.393zM23.124 2.126L14.54 8.042l2.475 1.548 7.925-5.685"></path><path fill="#E13A3E" d="M20.224 24.785c.58-.463 0-.89 0-.89l-1.314-.89-9.28 6.923.58.58c.386.35 1.005.425 1.237.425l8.777-6.148zM13.38 19.255l-3.83-2.59c-1.043-.89 0-1.74 0-1.74l2.437-1.74-2.59-1.74c-1.045-.89 0-1.74 0-1.74L11.6 8.16 9.59 6.843c-1.043-.89 0-1.74 0-1.74L16.55 0h-5.607c-.464 0-1.237.502-1.237.502L.658 9.512C.232 9.82 0 10.98 0 10.98v8.7c0 .89.696 1.624.696 1.624l4.1 3.98 8.583-6.03z"></path></svg>