<svg xmlns="http://www.w3.org/2000/svg" fill="none" viewBox="0 0 112 31" alt=""><path fill="#fff" d="M67.355 18.385h-7.548v1.636H62.6v6.986h1.977v-6.986h2.777v-1.636zm5.107-.272c-2.573 0-4.651 2.044-4.651 4.566s2.078 4.567 4.651 4.567 4.652-2.045 4.652-4.567c0-2.521-2.096-4.566-4.652-4.566zm2.266 5.947a2.406 2.406 0 01-1.823 1.465 4.164 4.164 0 01-.46.034c-.153 0-.306-.017-.46-.034a2.406 2.406 0 01-1.823-1.465 3.692 3.692 0 01-.273-1.38c0-.495.086-.955.273-1.38a2.406 2.406 0 011.823-1.466c.153-.017.307-.034.46-.034.154 0 .307.017.46.034a2.406 2.406 0 011.823 1.465c.17.426.273.903.273 1.38 0 .477-.102.955-.273 1.38zm2.441-5.69h2.317l2.181 3.697 2.164-3.697h2.335l-3.51 5.418v3.203h-1.977v-3.203l-3.51-5.418zm13.681-.257c-2.572 0-4.65 2.044-4.65 4.566s2.078 4.567 4.65 4.567c2.574 0 4.653-2.045 4.653-4.567.017-2.521-2.08-4.566-4.652-4.566zm2.284 5.947a2.406 2.406 0 01-1.823 1.465c-.153.034-.307.034-.46.034-.153 0-.307-.017-.46-.034a2.406 2.406 0 01-1.823-1.465 3.69 3.69 0 01-.273-1.38c0-.495.102-.955.273-1.38a2.44 2.44 0 011.823-1.466c.153-.017.307-.034.46-.034.153 0 .307.017.46.034a2.406 2.406 0 011.823 1.465c.17.426.273.903.273 1.38 0 .477-.102.955-.273 1.38zm15.809-5.691h-2.454l-3.561 8.604h2.198l.715-1.89h3.732l.716 1.89h2.198l-3.544-8.604zm-2.522 5.214l1.295-3.408 1.295 3.408h-2.59zm-2.945-5.198h-7.548v1.636h2.794v6.986h1.977v-6.986h2.777v-1.636zm-57.114 2.454c-.835 0-1.5.306-1.875.852l-.119.17v-3.868H42.58v9.014h1.79v-.954l.118.187c.358.562 1.04.886 1.858.886.835 0 1.601-.307 2.147-.886.545-.58.835-1.38.835-2.266 0-.886-.29-1.687-.835-2.266-.546-.563-1.295-.87-2.13-.87zm-.46 4.703c-.426 0-.818-.154-1.108-.427a1.528 1.528 0 01-.477-1.141c0-.92.665-1.585 1.585-1.585.92 0 1.55.63 1.55 1.585.017.954-.596 1.567-1.55 1.567zm8.791-4.584l-1.261 3.8-.051.17-.069-.17-1.346-3.8h-1.96l2.437 5.861.018.018-.018.017-.153.374c-.221.511-.613.767-1.193.767-.221 0-.409-.034-.562-.085l-.204 1.448c.34.137.715.188 1.141.188 1.244 0 1.977-.546 2.454-1.823l2.624-6.782-1.857.017zM49.143 3.05l-2.522 8.213-2.47-8.213h-3.034l3.851 11.501h2.863l2.42-7.719 2.487 7.72H55.6L59.247 3.05H56.4l-2.368 8.145-2.59-8.145h-2.3zm24.638 0l4.499 11.5h2.794l4.464-11.5H82.71l-2.948 8.298-2.948-8.298h-3.033zm18.593-.222c-3.356 0-5.793 2.522-5.793 5.998 0 3.51 2.505 5.964 6.1 5.964 1.84 0 3.493-.477 4.686-1.346l-.682-2.147c-1.005.75-2.351 1.175-3.714 1.175-2.096 0-3.391-1.107-3.579-3.05v-.05h8.503v-.393c0-3.68-2.215-6.15-5.52-6.15zm-2.896 4.686l.017-.051c.358-1.55 1.465-2.505 2.896-2.505 1.415 0 2.488 1.005 2.71 2.522v.05l-5.623-.016zm18.027-4.72c-1.738 0-3.187.784-3.988 2.13l-.085.136V3.05h-2.76v11.5h2.76V8.417c0-1.926 1.125-3.118 2.931-3.118 1.653 0 2.437.97 2.437 3.05v6.202h2.76v-7.31c-.017-2.914-1.414-4.447-4.055-4.447zm-40.831.016c-3.374 0-6.1 2.676-6.1 5.981 0 3.306 2.727 5.981 6.1 5.981 3.374 0 6.1-2.675 6.1-5.98 0-3.306-2.726-5.981-6.1-5.981zm2.982 7.787a3.149 3.149 0 01-2.385 1.926 3.386 3.386 0 01-.597.051c-.204 0-.409-.017-.596-.051a3.149 3.149 0 01-2.386-1.926 4.932 4.932 0 01-.34-1.806c0-.63.119-1.244.34-1.806a3.149 3.149 0 012.386-1.925 3.484 3.484 0 011.193-.001 3.149 3.149 0 012.385 1.926c.222.562.34 1.176.34 1.806a4.32 4.32 0 01-.34 1.806z"></path><path fill="#575A60" d="M17.991 25.73c1.33.783 1.619 1.482 1.619 2.538 0 1.483-1.21 2.573-2.829 2.573h10.07V20.618l-8.86 5.111z"></path><path fill="#D30C28" d="M26.852.17L19.78 6.323l7.072 4.072c.017-1.533.477-2.147 1.38-2.675 1.295-.75 2.845-.238 3.646 1.159L26.852.17z"></path><path fill="#7D7D83" d="M26.85 10.496v20.346l8.265-14.33a2.05 2.05 0 000-2.029l-3.238-5.605c-.8-1.398-2.368-1.909-3.646-1.16-.937.53-1.38 1.16-1.38 2.778z"></path><path fill="#414449" d="M19.165 26.7c.358.46.46.954.46 1.567 0 1.483-1.21 2.573-2.829 2.573h-1.04 7.021l-3.612-4.14z"></path><path fill="#B7B7B7" d="M5.531 10.053c-.766-.835-.886-2.113-.221-3.255L.283 15.505l8.86 5.112V14.21l-3.612-4.157z"></path><path fill="#969696" d="M6.13 10.532a2.372 2.372 0 01-.596-.477l3.612 4.14v-3.8c-1.346.75-2.112.665-3.015.137z"></path><path fill="#FF0A20" d="M9.216 10.343c.426-.255.767-.443.767-.443L26.85.17H10.306c-.715 0-1.397.393-1.755 1.006L5.314 6.782c-.801 1.397-.477 2.999.818 3.749.92.545 1.704.613 3.084-.188z"></path><path fill="#A1192E" d="M17.987 5.283l1.79 1.039 7.07-6.151-8.86 5.112z"></path><path fill="#fff" d="M17.904 25.678c-.426-.255-.767-.443-.767-.443L.27 15.505l8.264 14.33a1.997 1.997 0 001.755 1.006h6.474c1.62 0 2.829-1.09 2.829-2.573.017-1.073-.29-1.789-1.687-2.59z"></path></svg>