<svg xmlns="http://www.w3.org/2000/svg" width="258" height="40" viewBox="0 0 258 40"><g fill="none"><g transform="translate(47.89594 10.315326)" fill="#0063AB"><path d="M204.5 7.5C203.4 7.5 202.7 7.9 202.7 8.7 202.7 10.9 209.7 9.7 209.7 14.5 209.7 17.2 207.3 18.5 204.5 18.5 202.5 18.5 200.4 17.9 199 16.6L200.1 14.4C201.3 15.4 203.2 16 204.6 16 205.7 16 206.6 15.7 206.6 14.8 206.6 12.3 199.7 13.7 199.7 9 199.7 6.2 202 5 204.7 5 206.4 5 208.2 5.5 209.5 6.4L208.4 8.7C207.1 8 205.6 7.5 204.5 7.5"></path><path d="M198.6 5L198.6 8.1C195.8 8 194.1 9.6 194.1 12L194.1 18.4 190.9 18.4 190.9 5.1 194.1 5.1 194.1 7.7C195 5.9 196.6 5 198.6 5"></path><path d="M178 11.8C178 14.2 179.5 15.8 181.8 15.8 184 15.8 185.5 14.2 185.5 11.8 185.5 9.4 184 7.8 181.8 7.8 179.5 7.8 178 9.4 178 11.8M188.7 11.7C188.7 15.8 185.9 18.5 181.8 18.5 177.6 18.5 174.8 15.8 174.8 11.7 174.8 7.7 177.6 5 181.8 5 185.9 5 188.7 7.7 188.7 11.7"></path><path d="M174.3 17.6C173.3 18.2 172.1 18.5 171 18.5 168.8 18.5 167.1 17.3 167.1 14.6L167.1 8 165.2 8 165.2 5.7 167.1 5.7 167.1 2 170.3 2 170.3 5.7 174.1 5.7 174.1 8 170.3 8 170.3 14C170.3 15.3 170.8 15.7 171.7 15.7 172.2 15.7 172.8 15.5 173.5 15.1L174.3 17.6Z"></path><path d="M158.6 7.9C156.5 7.9 155 9.4 155 11.8 155 14.1 156.5 15.7 158.6 15.7 160.1 15.7 161.4 15.2 162.2 14.2L164.2 15.8C163 17.5 161 18.5 158.4 18.5 154.5 18.5 151.7 15.8 151.7 11.8 151.7 7.8 154.5 5 158.5 5 160.9 5 162.8 5.9 164 7.5L162.1 9.3C161.2 8.4 160.1 7.9 158.6 7.9"></path><path d="M147.6 10.7C147.5 8.8 146.2 7.5 144.2 7.5 142.3 7.5 141 8.8 140.7 10.7L147.6 10.7ZM150.5 12.9L140.8 12.9C141.2 14.8 142.6 15.9 144.5 15.9 145.9 15.9 147.2 15.4 148.1 14.4L149.8 16.2C148.5 17.7 146.6 18.5 144.3 18.5 140.2 18.5 137.5 15.8 137.5 11.8 137.5 7.8 140.2 5 144.2 5 148.9 5 150.9 8.1 150.5 12.9L150.5 12.9Z"></path><path d="M135.5 10.1L135.5 18.4 132.3 18.4 132.3 11C132.3 9.2 131.2 8 129.4 8 127.2 8.1 125.9 9.7 125.9 11.9L125.9 18.4 122.7 18.4 122.7 5.1 125.9 5.1 125.9 7.6C126.8 5.8 128.5 5 130.6 5 133.7 5 135.5 7 135.5 10.1"></path><path d="M119.8 10.1L119.8 18.4 116.5 18.4 116.5 11C116.5 9.2 115.4 8 113.6 8 111.4 8.1 110.1 9.7 110.1 11.9L110.1 18.4 106.9 18.4 106.9 5.1 110.1 5.1 110.1 7.6C111 5.8 112.7 5 114.8 5 117.9 5 119.8 7 119.8 10.1"></path><path d="M94 11.8C94 14.2 95.5 15.8 97.8 15.8 99.9 15.8 101.5 14.2 101.5 11.8 101.5 9.4 99.9 7.8 97.8 7.8 95.5 7.8 94 9.4 94 11.8M104.7 11.7C104.7 15.8 101.9 18.5 97.8 18.5 93.6 18.5 90.8 15.8 90.8 11.7 90.8 7.7 93.6 5 97.8 5 101.9 5 104.7 7.7 104.7 11.7"></path><path d="M83.5 3.8C80.2 3.8 77.6 6.3 77.6 9.6 77.6 12.9 80.2 15.5 83.5 15.5 85.1 15.5 86.9 14.7 88.2 13.4L90.1 15.6C88.3 17.4 85.8 18.6 83.3 18.6 78.2 18.6 74.2 14.7 74.2 9.7 74.2 4.7 78.2 0.8 83.4 0.8 85.9 0.8 88.4 1.9 90.1 3.6L88.2 6C86.9 4.6 85.2 3.8 83.5 3.8"></path><path d="M62.3 10.7C62.3 8.8 60.9 7.5 58.9 7.5 57 7.5 55.7 8.8 55.4 10.7L62.3 10.7ZM65.3 12.9L55.5 12.9C55.9 14.8 57.3 15.9 59.3 15.9 60.6 15.9 61.9 15.4 62.8 14.4L64.6 16.2C63.3 17.7 61.3 18.5 59 18.5 54.9 18.5 52.2 15.8 52.2 11.8 52.2 7.8 55 5 58.9 5 63.6 5 65.6 8.1 65.3 12.9L65.3 12.9Z"></path><path d="M46.7 11.8C46.7 9.4 45.2 7.8 42.9 7.8 40.7 7.8 39.2 9.4 39.2 11.8 39.2 14.2 40.7 15.8 42.9 15.8 45.2 15.8 46.7 14.2 46.7 11.8L46.7 11.8ZM49.9 0L49.9 18.4 46.7 18.4 46.7 16.2C45.8 17.7 44.2 18.5 42.3 18.5 38.5 18.5 35.9 15.8 35.9 11.7 35.9 7.7 38.5 5 42.2 5 44.2 5 45.7 5.8 46.7 7.3L46.7 0 49.9 0Z"></path><path d="M30.8 13.8L30.8 12.6 27.4 12.6C25.7 12.6 24.9 13.1 24.9 14.2 24.9 15.3 25.8 16 27.3 16 29.2 16 30.6 15.1 30.8 13.8L30.8 13.8ZM30.8 18.4L30.8 16.8C29.9 17.9 28.4 18.5 26.5 18.5 23.7 18.5 21.9 16.8 21.9 14.4 21.9 12 23.7 10.5 26.9 10.4L30.8 10.4 30.8 10.1C30.8 8.5 29.8 7.6 27.8 7.6 26.6 7.6 25.2 8 23.9 8.9L22.7 6.6C24.6 5.6 26.1 5 28.5 5 32 5 33.9 6.8 34 9.7L34 18.4 30.8 18.4Z"></path><path d="M21.4 5L21.4 8.1C18.6 8 16.9 9.6 16.9 12L16.9 18.4 13.6 18.4 13.6 5.1 16.9 5.1 16.9 7.7C17.7 5.9 19.3 5 21.4 5"></path><polygon points="14.1 1 14.1 4 8.7 4 8.7 18.4 5.4 18.4 5.4 4 0 4 0 1"></polygon></g><path d="M34.7 3.8C32.1 1.2 27.7 0.3 19.1 0.3 10.4 0.3 6.1 1.2 3.5 3.8 0.9 6.4 0 10.7 0 19.4 0 28 0.9 32.4 3.5 35 6.1 37.6 10.4 38.4 19.1 38.4 27.7 38.4 32.1 37.6 34.7 35 37.3 32.4 38.1 28 38.1 19.4 38.1 10.7 37.3 6.4 34.7 3.8" fill="#00A6E1"></path><path d="M21.5 28.7L16.7 28.7 16.7 17.2C16.7 16.6 16.2 16.1 15.6 16.1L9.3 16.1 9.3 11.4 28.8 11.4 28.8 16.1 22.5 16.1C21.9 16.1 21.5 16.6 21.5 17.2L21.5 22.8C21.5 23.4 21.9 23.9 22.5 23.9L38 23.9C38.1 23.2 38.1 22.5 38.1 21.8L23.6 21.8 23.6 18.3 29.9 18.3C30.5 18.3 31 17.8 31 17.2L31 10.3C31 9.7 30.5 9.2 29.9 9.2L8.2 9.2C7.6 9.2 7.2 9.7 7.2 10.3L7.2 17.2C7.2 17.8 7.6 18.3 8.2 18.3L14.5 18.3 14.5 29.8C14.5 30.4 15 30.9 15.6 30.9L21.5 30.9 21.5 33.2 29.8 29.8 21.5 26.3 21.5 28.7Z" fill="#FFF"></path></g></svg>