<svg height="100%" style="max-width:100%;" viewBox="0 0 101 24" fill="none" xmlns="http://www.w3.org/2000/svg">
<path fill-rule="evenodd" clip-rule="evenodd" d="M26.3225 0.670839L20.7427 10.5203L20.7083 10.5804L18.1151 15.1575L14.9297 9.53907L18.6372 3.0152L18.64 3.01091C18.6915 2.91364 18.7459 2.81638 18.8045 2.7234C18.8045 2.7234 18.8045 2.7234 18.8045 2.72054L18.8074 2.71625C19.7643 1.14715 21.465 0.0801001 23.4203 0.00429108C23.4947 0.00143036 23.5705 0 23.6449 0C23.7192 0 23.7936 0 23.8694 0.00429108C24.7548 0.0386197 25.5887 0.27749 26.3239 0.673699L26.3225 0.670839Z" fill="#FF6600"></path>
<path fill-rule="evenodd" clip-rule="evenodd" d="M16.5721 1.09848L13.3724 6.72551H5.61416C3.76185 6.72551 2.03826 5.81151 0.99696 4.30392C0.989809 4.2939 0.981227 4.28103 0.974075 4.27102C0.958341 4.24813 0.942607 4.22525 0.928303 4.20236C0.858216 4.09794 0.793849 3.99067 0.730914 3.88053L0.672269 3.77754C0.243161 2.98655 0 2.08257 0 1.11994V1.09848H16.5721Z" fill="#FF6600"></path>
<path fill-rule="evenodd" clip-rule="evenodd" d="M16.4137 19.1425C16.4137 21.2266 15.2709 23.0417 13.5759 24L8.08333 14.2979L5.38281 9.53052H11.7837L15.6414 16.3104C15.6414 16.3104 15.6456 16.319 15.6485 16.3219L15.6871 16.3891C15.8244 16.6323 15.9432 16.8811 16.0419 17.1357C16.0476 17.15 16.0533 17.1644 16.059 17.1787C16.2893 17.788 16.4152 18.4502 16.4152 19.1397L16.4137 19.1425Z" fill="#FF6600"></path>
<path d="M35.2085 15.5537L33.3576 9.9095C33.1245 9.19718 32.4594 8.71658 31.7099 8.71658H30.5312L33.8053 17.652H36.5788L39.8844 8.71658H38.7058C37.9562 8.71658 37.2911 9.19718 37.058 9.9095L35.2071 15.5537H35.2085Z" fill="#0C112C"></path>
<path d="M64.3515 13.3939C64.3515 13.8559 64.2699 14.2692 64.1097 14.6354C63.9481 15.0016 63.7178 15.2891 63.416 15.4979C63.1142 15.7082 62.7609 15.8126 62.3518 15.8126C61.7611 15.8126 61.2819 15.6166 60.9157 15.2233C60.5496 14.8314 60.3679 14.275 60.3679 13.5541V8.71516H58.1094V13.9403C58.1094 14.747 58.2481 15.435 58.5285 16.0043C58.8074 16.575 59.2079 17.0098 59.73 17.3102C60.2521 17.612 60.8671 17.7608 61.5766 17.7608C62.1244 17.7608 62.6265 17.6234 63.0842 17.3488C63.5404 17.0742 63.9166 16.6479 64.2127 16.0658C64.2628 15.9685 64.3071 15.867 64.35 15.7597V16.4348C64.35 16.801 64.4602 17.0928 64.6804 17.3131C64.9007 17.5333 65.1925 17.6435 65.5587 17.6435H66.6386V8.70801H64.3486V13.3896L64.3515 13.3939Z" fill="#0C112C"></path>
<path d="M74.3604 13.0063C73.9785 12.8117 73.5737 12.6601 73.1417 12.5471C72.7112 12.4341 72.3064 12.3269 71.9245 12.2239C71.5426 12.1209 71.2308 11.9979 70.9876 11.8534C70.7459 11.7075 70.6243 11.5015 70.6243 11.2312C70.6243 10.9609 70.7316 10.7663 70.9476 10.609C71.1621 10.4531 71.4754 10.3758 71.883 10.3758C72.3135 10.3758 72.6482 10.476 72.8914 10.6748C73.1331 10.8736 73.3034 11.1611 73.3992 11.5373L75.4632 10.9895C75.3445 10.506 75.1299 10.0841 74.8181 9.7236C74.5063 9.36315 74.1087 9.08566 73.6252 8.89399C73.1417 8.69946 72.5825 8.60363 71.9474 8.60363C71.215 8.60363 70.5871 8.72235 70.0607 8.95836C69.5344 9.19437 69.1281 9.51763 68.8421 9.92671C68.5574 10.3358 68.4144 10.7821 68.4144 11.2655C68.4144 11.8134 68.5345 12.251 68.7777 12.58C69.0194 12.9076 69.3341 13.1665 69.7203 13.3539C70.1065 13.5427 70.5156 13.6928 70.9461 13.8044C71.3767 13.9174 71.7815 14.019 72.1648 14.1119C72.5467 14.2035 72.8585 14.3222 73.1002 14.4667C73.342 14.6126 73.4636 14.8185 73.4636 15.0889C73.4636 15.3592 73.3477 15.5623 73.1174 15.734C72.8871 15.9056 72.5453 15.9929 72.0933 15.9929C71.7071 15.9929 71.3681 15.8884 71.0777 15.6782C70.7874 15.4679 70.5943 15.1861 70.497 14.8314L68.3672 15.3149C68.5059 15.7769 68.7491 16.196 69.0924 16.5722C69.4357 16.9483 69.8662 17.2416 70.3826 17.4504C70.8975 17.6607 71.4782 17.7651 72.1233 17.7651C72.8428 17.7651 73.4679 17.6478 73.9928 17.4104C74.5192 17.1743 74.9282 16.8539 75.2186 16.4506C75.509 16.0472 75.6534 15.6038 75.6534 15.1189C75.6534 14.5711 75.5333 14.1305 75.2901 13.7973C75.0484 13.464 74.7366 13.2008 74.3547 13.0063H74.359H74.3604Z" fill="#0C112C"></path>
<path d="M90.3845 15.2877C90.0999 15.4979 89.7909 15.661 89.4577 15.7797C89.1244 15.897 88.7797 15.9571 88.4264 15.9571C88.0173 15.9571 87.6354 15.8899 87.2821 15.7554C86.9274 15.6195 86.6284 15.4307 86.3867 15.1833C86.145 14.9358 85.9919 14.6683 85.9275 14.3765C85.959 14.3765 86.0277 14.3794 86.1292 14.3851C86.2322 14.3908 86.3466 14.3937 86.4754 14.3937C86.6041 14.3937 86.7171 14.3994 86.8129 14.4094C87.4251 14.4323 88.0502 14.4009 88.6838 14.3208C89.3189 14.2392 89.9025 14.0905 90.4346 13.8688C90.9667 13.6485 91.3944 13.351 91.7176 12.9734C92.0409 12.5972 92.2011 12.1294 92.2011 11.5702C92.2011 11.1396 92.101 10.7434 91.9022 10.3773C91.7033 10.0111 91.423 9.69784 91.0625 9.43465C90.7021 9.17146 90.2858 8.96692 89.8124 8.82246C89.3389 8.67656 88.834 8.60504 88.2962 8.60504C87.6611 8.60504 87.059 8.71518 86.4897 8.93545C85.919 9.15573 85.414 9.47041 84.9735 9.87806C84.5329 10.2871 84.1897 10.7763 83.9408 11.3456C83.6933 11.9163 83.5703 12.55 83.5703 13.248C83.5703 13.946 83.6905 14.541 83.9336 15.0946C84.1754 15.6481 84.5129 16.1244 84.9492 16.5207C85.384 16.9197 85.8946 17.2244 86.4811 17.4404C87.0675 17.6549 87.704 17.7636 88.392 17.7636C88.9513 17.7636 89.4877 17.6935 90.0055 17.5534C90.5204 17.4146 91.0053 17.1958 91.4573 16.8997C91.9079 16.605 92.3069 16.2317 92.6502 15.7783L91.0854 14.6011C90.9038 14.8486 90.6677 15.0774 90.3845 15.2877ZM86.1521 11.6117C86.3667 11.2512 86.6642 10.958 87.0475 10.7334C87.4294 10.5074 87.8671 10.3944 88.3606 10.3944C88.6724 10.3944 88.9499 10.4459 89.1902 10.5475C89.4319 10.649 89.625 10.7835 89.7695 10.9494C89.9154 11.1153 89.9869 11.307 89.9869 11.5215C89.9869 11.7804 89.8925 11.9921 89.7051 12.1595C89.5177 12.3254 89.2703 12.4541 88.9628 12.5457C88.6552 12.6372 88.3234 12.6987 87.9629 12.7302C87.6025 12.7617 87.2463 12.7788 86.8902 12.7788C86.6756 12.7788 86.4711 12.7731 86.278 12.7631C86.0835 12.7531 85.9233 12.7416 85.7945 12.7316C85.816 12.3454 85.9333 11.9707 86.1492 11.6102L86.1521 11.6117Z" fill="#0C112C"></path>
<path d="M57.029 16.7424C57.2135 17.1186 57.4366 17.459 57.6955 17.7636H55.3326C54.0696 17.7636 53.0469 16.7395 53.0469 15.4779V6.28215H55.3211V15.1861C55.3211 15.4965 55.5729 15.7483 55.8833 15.7483H56.66C56.7544 16.1016 56.8759 16.4334 57.029 16.7438V16.7424Z" fill="#0C112C"></path>
<path d="M83.8262 17.7551C83.2197 17.2001 82.7406 16.5307 82.4059 15.7626C82.403 15.7569 82.4016 15.7526 82.3987 15.7468H81.0041C80.678 15.7468 80.4134 15.4822 80.4134 15.1561V10.5704H82.4616C82.7849 9.86377 83.224 9.24014 83.7747 8.71662H79.465C79.5251 8.70375 79.5823 8.68659 79.6353 8.66513C79.7039 8.64082 79.7683 8.60935 79.8284 8.57216C79.8756 8.54355 79.9213 8.51065 79.9628 8.47489C80.0443 8.40481 80.1159 8.32757 80.1774 8.24461C80.2203 8.18596 80.2589 8.12302 80.2932 8.0558C80.3047 8.03291 80.3161 8.0086 80.3261 7.98571C80.3848 7.8484 80.4134 7.70965 80.4134 7.57234V6.28215H78.1548V7.94423C78.1548 8.13447 78.1105 8.29324 78.0232 8.42197C78.0018 8.45344 77.9789 8.48205 77.9532 8.50922C77.9331 8.52925 77.9131 8.54784 77.8916 8.56501C77.7643 8.66799 77.5999 8.71805 77.3967 8.71805H76.7188V10.5718H78.1048V15.7483C78.1048 16.3047 78.3308 16.8096 78.6969 17.1743C79.0617 17.5391 79.5666 17.7636 80.123 17.7636H83.8348C83.8348 17.7636 83.8276 17.7579 83.8262 17.7551Z" fill="#0C112C"></path>
<path d="M49.2811 13.5999H51.6927C51.6297 13.8474 51.5511 14.0862 51.4567 14.3194C51.172 15.0231 50.7715 15.631 50.2552 16.1402C49.7388 16.6523 49.1338 17.0485 48.44 17.3331C47.752 17.6164 46.9839 17.758 46.1743 17.7608C45.3633 17.758 44.6167 17.6164 43.9287 17.3331C43.235 17.0485 42.6313 16.6509 42.1136 16.1402C41.5972 15.6296 41.1967 15.0217 40.9121 14.3194C40.626 13.6156 40.4844 12.8432 40.4844 12.0051C40.4844 11.1669 40.6288 10.3973 40.9192 9.69789C41.2096 8.99844 41.6129 8.39483 42.1279 7.88276C42.6442 7.37069 43.2493 6.97734 43.943 6.69699C44.6296 6.42093 45.3733 6.27933 46.1729 6.27933H46.1915C46.9897 6.28219 47.7334 6.42093 48.4214 6.69842C49.1152 6.97734 49.7202 7.37355 50.2366 7.88419C50.7515 8.39483 51.1563 8.99844 51.4452 9.69931C51.5453 9.93962 51.6269 10.1871 51.6927 10.4431H49.2825C49.231 10.3086 49.1724 10.1799 49.1066 10.054C48.8162 9.50622 48.4157 9.07854 47.9051 8.77101C47.4087 8.47207 46.8423 8.32045 46.2072 8.31187H46.1543C45.5192 8.32045 44.9528 8.4735 44.4565 8.77101C43.9444 9.07854 43.5453 9.50479 43.255 10.054C42.9646 10.6019 42.8202 11.2527 42.8202 12.0051C42.8202 12.7574 42.9632 13.414 43.2478 13.9718C43.5325 14.5311 43.9273 14.963 44.4336 15.2706C44.9385 15.5767 45.5178 15.7297 46.1729 15.7311C46.8266 15.7311 47.4259 15.5781 47.9308 15.2706C48.4372 14.963 48.832 14.5325 49.1166 13.9718C49.1767 13.8531 49.2325 13.7272 49.2797 13.5985L49.2811 13.5999Z" fill="#0C112C"></path>
<path d="M100.126 8.74089L99.1747 10.772C98.9158 10.6547 98.6226 10.5946 98.2965 10.5946C97.8817 10.5946 97.5212 10.7005 97.2165 10.9136C96.9119 11.1267 96.6759 11.4171 96.5128 11.7876C96.3497 12.158 96.2682 12.5771 96.2682 13.0463V17.7851H95.513C94.6462 17.7851 93.9453 17.0842 93.9453 16.2174V8.73088H95.041C95.4114 8.73088 95.7089 8.84245 95.9321 9.06558C96.1566 9.28872 96.2682 9.58623 96.2682 9.95527V10.6404C96.3111 10.5331 96.3569 10.4287 96.407 10.3315C96.7073 9.74214 97.0892 9.31018 97.5527 9.03269C98.0161 8.7552 98.5268 8.61502 99.0832 8.61502C99.4565 8.61502 99.8055 8.65507 100.129 8.73803L100.126 8.74089Z" fill="#0C112C"></path>
</svg>